<svg xmlns="http://www.w3.org/2000/svg" viewBox="0 0 764.02 171.32"><defs><style>.cls-1{fill:#32bab0;stroke:#fff;stroke-miterlimit:10;stroke-width:0.5px;}</style></defs><title>letter</title><g id="Capa_2" data-name="Capa 2"><g id="Capa_2-2" data-name="Capa 2"><path class="cls-1" d="M54.72,126.19a54.29,54.29,0,0,0,54.47-54.47V3.3H76.51V71.72a21.79,21.79,0,0,1-43.58,0V3.3H.25V71.72a54.29,54.29,0,0,0,54.47,54.47Z"/><path class="cls-1" d="M253.25,40.12A67.55,67.55,0,0,0,240,20.29,67.44,67.44,0,0,0,220.14,7,60.7,60.7,0,0,0,196,2.2,61.43,61.43,0,0,0,171.76,7a67.31,67.31,0,0,0-19.82,13.29,64.62,64.62,0,0,0-13.29,19.83,64.49,64.49,0,0,0-4.8,24.19v92.6l32.68,10.9V119a55.11,55.11,0,0,0,5.23,2.39,60.79,60.79,0,0,0,48.38,0A59.56,59.56,0,0,0,240,108.1a63.57,63.57,0,0,0,13.29-19.61,61.35,61.35,0,0,0,4.8-24.18,60.63,60.63,0,0,0-4.8-24.19ZM196,93.72a29.42,29.42,0,1,1,29.42-29.41A29.58,29.58,0,0,1,196,93.72Z"/><path class="cls-1" d="M374.17,19.86a60.92,60.92,0,1,0-15.9,97.83,28.33,28.33,0,0,1-46.85,12.86L288.75,154.3A61.14,61.14,0,0,0,392,110.06V63a60.45,60.45,0,0,0-17.87-43.14ZM331,91.33A28.44,28.44,0,1,1,359.36,63,28.45,28.45,0,0,1,331,91.33Z"/><path class="cls-1" d="M449.84,124.66V71.06A38.18,38.18,0,0,1,488,32.93V.25a70.53,70.53,0,0,0-50.11,20.92,69.2,69.2,0,0,0-20.7,49.89v53.61Z"/><path class="cls-1" d="M582.66,2l.22,7a63,63,0,0,0-28.11-6.75A61.43,61.43,0,0,0,530.58,7,67.61,67.61,0,0,0,510.75,20.3a64.73,64.73,0,0,0-13.29,19.83,65.51,65.51,0,0,0-4.79,24.19,65.58,65.58,0,0,0,4.79,24.18,67.48,67.48,0,0,0,13.29,19.83,67.61,67.61,0,0,0,19.83,13.29,65.59,65.59,0,0,0,24.19,4.79,62.86,62.86,0,0,0,28.11-6.75l-.22,5h32.68V2Zm-13.07,87.6a29.24,29.24,0,0,1-14.82,4.14,29.42,29.42,0,1,1,0-58.84,27.46,27.46,0,0,1,15.91,4.8,26.34,26.34,0,0,1,10.67,12.2,27.33,27.33,0,0,1,2.83,12.42,29.53,29.53,0,0,1-3.92,14.82,27.3,27.3,0,0,1-10.67,10.46Z"/><path class="cls-1" d="M759,40.12a67.55,67.55,0,0,0-13.29-19.83A67.7,67.7,0,0,0,725.86,7a60.72,60.72,0,0,0-24.2-4.8A61.42,61.42,0,0,0,677.48,7a67.48,67.48,0,0,0-19.83,13.29,64.62,64.62,0,0,0-13.29,19.83,64.68,64.68,0,0,0-4.79,24.19v92.6l32.68,10.9V119a54,54,0,0,0,5.23,2.39,60.79,60.79,0,0,0,48.38,0,59.76,59.76,0,0,0,19.82-13.29A63.57,63.57,0,0,0,759,88.49a61.35,61.35,0,0,0,4.8-24.18A60.63,60.63,0,0,0,759,40.12Zm-57.31,53.6a29.42,29.42,0,1,1,29.42-29.41,29.58,29.58,0,0,1-29.42,29.41Z"/></g></g></svg>