<svg xmlns="http://www.w3.org/2000/svg" viewBox="0 0 764.02 436.93"><defs><style>.cls-1,.cls-2{fill:#32bab0;}.cls-2{stroke:#fff;stroke-miterlimit:10;stroke-width:0.5px;}</style></defs><title>logolema</title><g id="Capa_2" data-name="Capa 2"><g id="Capa_1-2" data-name="Capa 1"><path class="cls-1" d="M265.68,403.48h4.55v29.09h14.53v4.14H265.68Z"/><path class="cls-1" d="M300.17,411.44q5.83,0,8.83,3.47t3,9.54c0,.63,0,1.11-.05,1.43H292.1a8.62,8.62,0,0,0,2.8,5.36,8.45,8.45,0,0,0,5.7,2,10.63,10.63,0,0,0,4.13-.8,9.91,9.91,0,0,0,3.36-2.28l2.43,2.51a12.85,12.85,0,0,1-4.46,3.09,14.86,14.86,0,0,1-5.79,1.09,13.56,13.56,0,0,1-6.6-1.57,11.51,11.51,0,0,1-4.47-4.5,13.72,13.72,0,0,1-1.57-6.6,13.42,13.42,0,0,1,1.57-6.55,11.56,11.56,0,0,1,4.47-4.52,12.7,12.7,0,0,1,6.5-1.66Zm7.83,11a7.31,7.31,0,0,0-7.78-7.35,8,8,0,0,0-5.55,2,8.38,8.38,0,0,0-2.61,5.36Z"/><path class="cls-1" d="M331.48,435.05a10.78,10.78,0,0,1-5.88,1.84,6.74,6.74,0,0,1-4.84-1.75,7.23,7.23,0,0,1-1.86-5.41V415.82h-3.55v-3.37h3.55v-6.74h4.47v6.74h7.69v3.37h-7.69v13.1a4.63,4.63,0,0,0,.76,3,2.81,2.81,0,0,0,2.28.9,7.86,7.86,0,0,0,3.89-1.19Z"/><path class="cls-1" d="M337.45,401.48a2.43,2.43,0,0,1,1.76.71,2.48,2.48,0,0,1,.76,1.9,2.79,2.79,0,0,1-.24,1.09c-.13.38-.27.74-.43,1.09l-2.56,5.41h-2.42l1.9-5.36a2.32,2.32,0,0,1-1-.9,2.79,2.79,0,0,1-.33-1.33,2.5,2.5,0,0,1,2.56-2.61Z"/><path class="cls-1" d="M360.19,417.14a14.64,14.64,0,0,0-3.46-1.52,12.46,12.46,0,0,0-3.57-.57,6.11,6.11,0,0,0-3.22.76,2.43,2.43,0,0,0-1.19,2.23,2.57,2.57,0,0,0,1.33,2.33,21.72,21.72,0,0,0,4.13,1.56,32,32,0,0,1,4.27,1.53,7.21,7.21,0,0,1,2.8,2.22,6,6,0,0,1,1.19,3.9,6.13,6.13,0,0,1-2.71,5.41,11.38,11.38,0,0,1-6.64,1.85,16.64,16.64,0,0,1-5.46-.91,12.41,12.41,0,0,1-4.42-2.55l1.66-3.23a11.87,11.87,0,0,0,3.85,2.28,13.24,13.24,0,0,0,4.51.85,6.56,6.56,0,0,0,3.51-.81A2.69,2.69,0,0,0,358.1,430a2.77,2.77,0,0,0-1.42-2.55,18,18,0,0,0-4.23-1.72,30.63,30.63,0,0,1-4.12-1.42,7.82,7.82,0,0,1-2.72-2.19,6.74,6.74,0,0,1,1.48-9,11.1,11.1,0,0,1,6.41-1.75,15.34,15.34,0,0,1,4.46.66,13.07,13.07,0,0,1,3.85,1.71Z"/><path class="cls-1" d="M394.27,435.05a10.86,10.86,0,0,1-5.89,1.84,6.74,6.74,0,0,1-4.84-1.75,7.27,7.27,0,0,1-1.85-5.41V415.82h-3.56v-3.37h3.56v-6.74h4.46v6.74h7.69v3.37h-7.69v13.1a4.63,4.63,0,0,0,.76,3,2.8,2.8,0,0,0,2.28.9,7.86,7.86,0,0,0,3.89-1.19Z"/><path class="cls-1" d="M404,417a8.91,8.91,0,0,1,3.52-4.08,10.27,10.27,0,0,1,5.4-1.48v4.27a8.09,8.09,0,0,0-8.92,7.75v13.24H399.6V411.6H404Z"/><path class="cls-1" d="M432,436.71v-3.52c-1.86,2.48-4.79,3.7-8.78,3.7a10.18,10.18,0,0,1-4.6-1,7.21,7.21,0,0,1-4.09-6.69,6.43,6.43,0,0,1,2.47-5.32,11.15,11.15,0,0,1,7-2h8v-1.19a5.07,5.07,0,0,0-1.66-4.08,6.82,6.82,0,0,0-4.74-1.48,13.67,13.67,0,0,0-7.75,2.72L416,414.77a22.34,22.34,0,0,1,5-2.51,16.8,16.8,0,0,1,5.51-.81q4.69,0,7.26,2.33a8.25,8.25,0,0,1,2.61,6.41l.05,16.52Zm-7.88-3.47a9,9,0,0,0,5.22-1.47,5.91,5.91,0,0,0,2.61-4v-2.51h-7.35a8.75,8.75,0,0,0-4.47.9A3.14,3.14,0,0,0,418.7,429a3.68,3.68,0,0,0,1.47,3.08,6.3,6.3,0,0,0,3.94,1.14Z"/><path class="cls-1" d="M467.59,401.48V436.7h-4.41v-5a10,10,0,0,1-3.85,3.88,11.09,11.09,0,0,1-5.55,1.33,12.32,12.32,0,0,1-6.32-1.6,11.57,11.57,0,0,1-4.21-4.56,14.35,14.35,0,0,1-1.53-6.7,13.62,13.62,0,0,1,1.53-6.55,11.18,11.18,0,0,1,4.21-4.51,12.24,12.24,0,0,1,6.27-1.61,11.55,11.55,0,0,1,5.66,1.33,9.53,9.53,0,0,1,3.79,3.84V401.48Zm-12.91,31.66a8.22,8.22,0,0,0,4.37-1.15,7.94,7.94,0,0,0,3-3.17,9.59,9.59,0,0,0,1.09-4.6,9.71,9.71,0,0,0-1.09-4.66,8,8,0,0,0-3-3.18,8.92,8.92,0,0,0-8.78.05,8,8,0,0,0-3,3.18,10.27,10.27,0,0,0,0,9.21,7.88,7.88,0,0,0,3,3.17,8.46,8.46,0,0,0,4.41,1.15Z"/><path class="cls-1" d="M486.52,411.44q5.85,0,8.83,3.47t3,9.54c0,.63,0,1.11,0,1.43H478.46a8.61,8.61,0,0,0,2.79,5.36,8.47,8.47,0,0,0,5.7,2,10.59,10.59,0,0,0,4.13-.8,9.85,9.85,0,0,0,3.37-2.28l2.42,2.51a12.67,12.67,0,0,1-4.46,3.09,14.82,14.82,0,0,1-5.79,1.09,13.58,13.58,0,0,1-6.6-1.57,11.42,11.42,0,0,1-4.46-4.5,13.61,13.61,0,0,1-1.57-6.6,13.31,13.31,0,0,1,1.57-6.55A11.47,11.47,0,0,1,480,413.1a12.75,12.75,0,0,1,6.5-1.66Zm7.84,11a7.31,7.31,0,0,0-7.79-7.35,8,8,0,0,0-5.55,2,8.38,8.38,0,0,0-2.61,5.36Z"/><path class="cls-2" d="M54.72,327.23a54.3,54.3,0,0,0,54.47-54.48V204.34H76.51v68.41a21.79,21.79,0,0,1-43.58,0V204.34H.25v68.41a54.3,54.3,0,0,0,54.47,54.48Z"/><path class="cls-2" d="M253.25,241.15A61.66,61.66,0,0,0,220.14,208a60.7,60.7,0,0,0-24.19-4.8,61.43,61.43,0,0,0-24.19,4.8,66.92,66.92,0,0,0-19.82,13.29,61.86,61.86,0,0,0-18.09,44V358l32.68,10.89V320a55.23,55.23,0,0,0,5.23,2.4,60.9,60.9,0,0,0,48.38,0A59.71,59.71,0,0,0,240,309.14a63.69,63.69,0,0,0,13.29-19.61,61.4,61.4,0,0,0,4.8-24.19,60.7,60.7,0,0,0-4.8-24.19ZM196,294.76a29.42,29.42,0,1,1,29.42-29.42A29.59,29.59,0,0,1,196,294.76Z"/><path class="cls-2" d="M374.17,220.89a60.92,60.92,0,1,0-15.9,97.84,28.32,28.32,0,0,1-46.85,12.85l-22.67,23.75A61.14,61.14,0,0,0,392,311.1V264a60.49,60.49,0,0,0-17.87-43.15ZM331,292.36A28.44,28.44,0,1,1,359.36,264,28.45,28.45,0,0,1,331,292.36Z"/><path class="cls-2" d="M449.84,325.69V272.1A38.17,38.17,0,0,1,488,234V201.28a70.64,70.64,0,0,0-50.11,20.92,69.25,69.25,0,0,0-20.7,49.9v53.6Z"/><path class="cls-2" d="M582.66,203l.22,7a62.86,62.86,0,0,0-28.11-6.75,61.43,61.43,0,0,0-24.19,4.8,67.39,67.39,0,0,0-19.83,13.28,64.85,64.85,0,0,0-13.29,19.83,63.48,63.48,0,0,0,0,48.38,61.64,61.64,0,0,0,33.12,33.11,65.6,65.6,0,0,0,24.19,4.8,63,63,0,0,0,28.11-6.75l-.22,5h32.68V203Zm-13.07,87.6a29.24,29.24,0,0,1-14.82,4.14,29.42,29.42,0,1,1,0-58.84,27.39,27.39,0,0,1,15.91,4.8,26.29,26.29,0,0,1,10.67,12.2,27.29,27.29,0,0,1,2.83,12.41,29.5,29.5,0,0,1-3.92,14.82,27.39,27.39,0,0,1-10.67,10.47Z"/><path class="cls-2" d="M759,241.15A61.66,61.66,0,0,0,725.86,208a60.72,60.72,0,0,0-24.2-4.8,61.42,61.42,0,0,0-24.18,4.8,67.1,67.1,0,0,0-19.83,13.29,61.79,61.79,0,0,0-18.08,44V358l32.68,10.89V320a54.11,54.11,0,0,0,5.23,2.4,60.9,60.9,0,0,0,48.38,0,59.92,59.92,0,0,0,19.82-13.29A63.69,63.69,0,0,0,759,289.53a61.4,61.4,0,0,0,4.8-24.19,60.7,60.7,0,0,0-4.8-24.19Zm-57.31,53.61a29.42,29.42,0,1,1,29.42-29.42,29.58,29.58,0,0,1-29.42,29.42Z"/><path class="cls-2" d="M446.28,71.74a70.21,70.21,0,0,1,.48,8.23,69.28,69.28,0,0,1-132.18,29,55.65,55.65,0,1,0-23.63,3.9A92.61,92.61,0,0,0,469.43,69ZM261.57,57.3A32.38,32.38,0,1,1,294,89.68,32.41,32.41,0,0,1,261.57,57.3"/><path class="cls-2" d="M519.35,40.94,466.25,2.09c-3.39-2.48-9.67-2.43-13.07,0L398.79,40.94c-5.69,4.06-8.41,11.29-4.65,17.72,3.29,5.62,12,8.73,17.72,4.65l47.78-34.13,46.64,34.13c5.64,4.13,14.44,1,17.71-4.65,3.84-6.56,1-13.58-4.64-17.72"/></g></g></svg>