<svg xmlns="http://www.w3.org/2000/svg" viewBox="0 0 440.47 422.75"><defs><style>.cls-1{fill:#e0e0e0;}.cls-2{fill:#ebebeb;}.cls-3{fill:#fafafa;}.cls-4{fill:#263238;}.cls-5{fill:#fff;}.cls-6{fill:#455a64;}.cls-7{fill:#ff725e;}.cls-8{fill:#ffbe9d;}.cls-9{fill:#eb996e;}.cls-10{opacity:0.4;}.cls-11,.cls-12{opacity:0.3;}</style></defs><title>fig2</title><g id="Capa_2" data-name="Capa 2"><g id="Background_Complete" data-name="Background Complete"><path class="cls-1" d="M152.57,256.87s-9.65-6.73-14.08-5.51-10.12,7.45-10.12,7.45,11.25-3.24,14.64-2.57A62.42,62.42,0,0,0,152.57,256.87Z"/><path class="cls-1" d="M155.81,259.3c-1.4,3.18-3.83,5.83-5.18,9a15.23,15.23,0,0,0-.07,11.58,20.8,20.8,0,0,0,4.92-9.86,53.28,53.28,0,0,0,1.12-10.32Z"/><path class="cls-1" d="M154.33,258.47c.45-1.3-10.48-.74-14,3.48s-7,8.79-4,19.41c0,0,6.6-11.51,6.6-11.34S153.46,261,154.33,258.47Z"/><path class="cls-1" d="M154.42,258.33c-1,.4,8.91,3.42,13.49,3.79a13.94,13.94,0,0,0,7.35-1.16S168.6,252.83,154.42,258.33Z"/><path class="cls-1" d="M204.55,300.14s4.78-1.94,6.12-.59,6.87,8.66,12.09,9.1c0,0-4.77-10.15-9.1-11.79C210.81,295.78,204.55,300.14,204.55,300.14Z"/><path class="cls-1" d="M205.78,299.59s-.19-3.58-2-5.47-8.3-3.17-8.3-3.17a25.34,25.34,0,0,0,4.74,5.58A26.51,26.51,0,0,0,205.78,299.59Z"/><path class="cls-1" d="M205.77,299.39s-3.32-.05-5.68,4.11a33.54,33.54,0,0,0-3.43,9c.2-.35,6.28-3,7.88-6.38A14.11,14.11,0,0,0,205.77,299.39Z"/><path class="cls-1" d="M206.53,299.39s.6,7.92,1.94,9.26,3.29,6.27,3.29,6.27,3-7.16,1.34-10.6S206.53,299.39,206.53,299.39Z"/><path class="cls-1" d="M177.51,314.68c-.38.58-8,6.52-9.2,9.39s-.19,7.29,0,8.63,6.9-1.73,8.05-6.9A59.8,59.8,0,0,0,177.51,314.68Z"/><path class="cls-1" d="M179,310.23c0,1,.12,10.35,2.59,13.63a44,44,0,0,0,7,6.76s1.62-11.87-1.81-15.54A18.56,18.56,0,0,0,179,310.23Z"/><path class="cls-1" d="M177.88,311.85c-.56-.14-7.5-.79-10.79,3.16a36.52,36.52,0,0,0-5.15,8.43s10.49-5.2,12.41-7.51S177.88,311.85,177.88,311.85Z"/><path class="cls-1" d="M182.64,307.55a5.46,5.46,0,0,1,5.94-.15c3.12,1.94,8.3,9.47,8.3,9.47s-6.34-.41-9.68-3.58A22,22,0,0,1,182.64,307.55Z"/><path class="cls-1" d="M178.14,308.71s-4-3.42-7.09-4.18S159,306,159,306a16.12,16.12,0,0,0,10.44,2.69C175.65,308.18,178.14,308.71,178.14,308.71Z"/><path class="cls-1" d="M164.8,343.51s-2.88,5.56,0,8.63,4.42,9.19,4.42,9.19,5-4.79,2.47-10.15A17.41,17.41,0,0,0,164.8,343.51Z"/><path class="cls-1" d="M160.18,343.63c-.76.39-5.74,7.09-6.13,11.88s-.76,13,0,12.46,6.33-5.75,7.86-10.73S160.18,343.63,160.18,343.63Z"/><path class="cls-1" d="M158.31,343.11c-.77.19-8.05-1.15-12.07,4a63.52,63.52,0,0,0-7.09,12.65s10.54-5.39,13-8.35S158.31,343.11,158.31,343.11Z"/><path class="cls-1" d="M199.43,333.91s-2.19,6.52,0,12.26a55.63,55.63,0,0,0,4.68,9.58s3.25-11.49,1.15-14.56S199.43,333.91,199.43,333.91Z"/><path class="cls-1" d="M200.63,333.22c.78.72,9.76,13.62,15.87,14.77s1-.49,1-.49-1.93-8.69-4.66-12.29S200.63,333.22,200.63,333.22Z"/><path class="cls-1" d="M199.27,333s6.63-4.6,9.22-5.77,11.17.37,11.17.37-10.42,5.42-12.92,4.85-7.47,1.64-7.47,1.64"/><path class="cls-1" d="M222.32,270.26s-5.75,6.09-5,10.84a57.08,57.08,0,0,0,2.46,9.33l2.53-8.38Z"/><path class="cls-1" d="M223.1,269s-1.33,9.32,1.33,13.13,6.28,11,6.66,10.47,5.9-5.52,1.9-12.56A36.09,36.09,0,0,0,223.1,269Z"/><path class="cls-1" d="M221.17,270.69S212,268,210.67,272.4s-2.46,8.19-2.46,8.19a35.6,35.6,0,0,1,6.48-5.35A69.71,69.71,0,0,0,221.17,270.69Z"/><path class="cls-1" d="M180,273.16l.75-.65c2.16-1.85,8.5-6.94,11.7-6.16a67.45,67.45,0,0,1,9.25,3.36S187.83,276.92,180,273.16Z"/><path class="cls-1" d="M181.86,273.22c0-.69-4.17-1.81-7.86,2s-4.26,6.14-4.26,6.14S181.6,279.79,181.86,273.22Z"/><path class="cls-1" d="M181.2,274s-4.21,4.85-1,9.61,6,9.32,6,9.32a15.37,15.37,0,0,0,0-9.46A33.9,33.9,0,0,0,181.2,274Z"/><path class="cls-1" d="M197,286.07c-.19-1.16,1.34-10.66-11.23-9.72H184.6s6,9.7,7.39,12.75a13.1,13.1,0,0,0,3.89,5.32C197.36,295.76,197.17,287.22,197,286.07Z"/><path class="cls-1" d="M199.41,333.52a10.94,10.94,0,0,0-3-8.12c-.2-.2-.47-.41-.73-.29a.64.64,0,0,0-.3.44,6.91,6.91,0,0,0,.7,5.23,17.47,17.47,0,0,0,3.4,4.18"/><path class="cls-1" d="M164,342.28A21.39,21.39,0,0,0,153.8,333a1.45,1.45,0,0,0-.86-.17,1.13,1.13,0,0,0-.77,1,3.7,3.7,0,0,0,1,2.54,17.87,17.87,0,0,0,11.32,6.77"/><path class="cls-1" d="M214.35,328.25s-.65,0-1.8.18a20.33,20.33,0,0,0-4.74,1.22,27.18,27.18,0,0,0-6.33,3.57,65.09,65.09,0,0,0-6.69,5.93c-4.57,4.44-8.59,8.57-11.38,11.67-1.4,1.55-2.5,2.82-3.27,3.71l-.88,1a1.57,1.57,0,0,1-.33.33,2.24,2.24,0,0,1,.26-.39c.18-.25.45-.61.82-1.07.72-.92,1.79-2.23,3.16-3.8,2.73-3.17,6.73-7.34,11.3-11.78a62.79,62.79,0,0,1,6.76-5.95,26.31,26.31,0,0,1,6.46-3.53,19,19,0,0,1,4.84-1.1c.59,0,1-.05,1.35,0A1.57,1.57,0,0,1,214.35,328.25Z"/><path class="cls-1" d="M178.69,353.12c-.08.05-.82-1.25-2.46-3a20.76,20.76,0,0,0-16.72-6.56c-2.38.16-3.81.6-3.83.51a4.45,4.45,0,0,1,1-.33,18,18,0,0,1,2.82-.51,20,20,0,0,1,17,6.67,17.27,17.27,0,0,1,1.72,2.28A4.14,4.14,0,0,1,178.69,353.12Z"/><path class="cls-1" d="M181.16,273.09s0,.09,0,.27,0,.47-.07.8c-.07.74-.17,1.77-.3,3.07-.27,2.67-.66,6.53-1.09,11.29-.85,9.54-1.84,22.75-1.82,37.36s1.07,27.81,1.81,37.36c.39,4.75.7,8.6.92,11.31.1,1.31.18,2.34.24,3.07,0,.33,0,.6,0,.8a1,1,0,0,1,0,.28,1.75,1.75,0,0,1,0-.27c0-.21-.05-.47-.09-.8-.08-.73-.19-1.76-.33-3.07-.27-2.66-.64-6.52-1.06-11.29-.83-9.54-1.9-22.76-2-37.39s1-27.85,2-37.39c.47-4.76.91-8.62,1.23-11.28.17-1.3.3-2.33.39-3.06,0-.32.08-.59.11-.79A1,1,0,0,1,181.16,273.09Z"/><path class="cls-1" d="M209.81,298.81a7.68,7.68,0,0,1-1.33.2c-.87.1-2.11.26-3.64.51a67.67,67.67,0,0,0-22.73,8c-1.35.76-2.43,1.41-3.16,1.87a7.6,7.6,0,0,1-1.17.68,6.58,6.58,0,0,1,1.07-.82c.71-.52,1.76-1.21,3.1-2a60.73,60.73,0,0,1,22.84-8c1.55-.21,2.8-.32,3.67-.36A7.69,7.69,0,0,1,209.81,298.81Z"/><path class="cls-1" d="M178.79,294.56a1.68,1.68,0,0,1-.12-.51c-.07-.38-.15-.87-.26-1.47a20.88,20.88,0,0,0-.46-2.32c-.23-.89-.41-1.93-.79-3-.18-.55-.36-1.13-.55-1.73s-.47-1.21-.71-1.84a43.36,43.36,0,0,0-1.79-4,51.78,51.78,0,0,0-5.47-8.31,64,64,0,0,0-13.39-12.13c-.94-.69-1.85-1.22-2.62-1.73s-1.45-.91-2-1.24l-1.28-.78c-.29-.18-.44-.28-.43-.3a2.53,2.53,0,0,1,.47.22l1.33.7c.57.31,1.27.69,2.06,1.18s1.71,1,2.66,1.68A61.28,61.28,0,0,1,169,271.1a51.22,51.22,0,0,1,5.49,8.4,42.15,42.15,0,0,1,1.76,4c.24.64.51,1.25.69,1.86s.36,1.2.52,1.76a30.51,30.51,0,0,1,.74,3.07,21.39,21.39,0,0,1,.39,2.34c.07.61.12,1.1.17,1.49A3.37,3.37,0,0,1,178.79,294.56Z"/><path class="cls-1" d="M223.76,269.82a2.51,2.51,0,0,1-.49.21l-1.4.53c-1.23.45-3,1.12-5.16,2a148.49,148.49,0,0,0-31.85,17.52c-1.89,1.37-3.4,2.5-4.43,3.3l-1.2.9c-.28.21-.43.31-.44.29a2.65,2.65,0,0,1,.38-.36l1.15-1c1-.85,2.48-2,4.35-3.42A135.81,135.81,0,0,1,200,279.93a132.81,132.81,0,0,1,16.56-7.68c2.19-.84,4-1.46,5.22-1.86l1.44-.44A1.91,1.91,0,0,1,223.76,269.82Z"/><polygon class="cls-1" points="197.22 421.57 161.12 421.57 157.35 377.47 201.44 377.47 197.22 421.57"/><rect class="cls-1" x="154.55" y="377.47" width="49.82" height="6.78"/><path class="cls-2" d="M204.05,384.27c0,.12-11.14.22-24.88.22s-24.88-.1-24.88-.22,11.14-.23,24.88-.23S204.05,384.14,204.05,384.27Z"/><rect class="cls-2" x="356.02" y="383.67" width="30.66" height="38.7" transform="translate(739.55 808.93) rotate(-179.55)"/><polygon class="cls-3" points="374.85 384.93 374.3 422.4 369.46 422.36 370.49 384.89 374.85 384.93"/><polygon class="cls-1" points="338.57 384.64 356.17 384.78 386.82 385.02 356.13 389.06 355.87 422.25 338.29 422.12 338.57 384.64"/><polygon class="cls-3" points="348.15 384.72 347.45 422.19 342.23 422.15 343.08 384.68 348.15 384.72"/><path class="cls-1" d="M362.07,373.31c0,.24-.51.48-1.45.72a23.43,23.43,0,0,1-4.06.54,25.7,25.7,0,0,1-2.89,0c-.52,0-1.07-.1-1.63-.19a13.47,13.47,0,0,1-1.79-.38,4.9,4.9,0,0,1-1.11-.48A3.46,3.46,0,0,1,348,372.4a3.14,3.14,0,0,1-.5-1.68,5.36,5.36,0,0,1,.14-1.31,22.53,22.53,0,0,1,1.18-3.88,11.14,11.14,0,0,1,1.12-2,10.26,10.26,0,0,1,.76-.89,5.67,5.67,0,0,1,1-.83,4.21,4.21,0,0,1,1.39-.55,3.55,3.55,0,0,1,1.59,0,5.29,5.29,0,0,1,2.09,1.16,16.8,16.8,0,0,1,4,4.94,12.3,12.3,0,0,1,1.36,4c.12,1,0,1.57-.22,1.62-.5.12-1.22-1.85-3.17-4.33a19.9,19.9,0,0,0-3.94-3.78,2.46,2.46,0,0,0-.89-.46l-.17,0a1.16,1.16,0,0,0-.27.14,2.9,2.9,0,0,0-.38.35,6.4,6.4,0,0,0-.44.54,8.6,8.6,0,0,0-.74,1.35,24.36,24.36,0,0,0-1.05,3.29,4.59,4.59,0,0,0-.1.48v0h0l-.1,0c-.1,0-.13.06-.06,0l.11-.08v0l.09.08a1.88,1.88,0,0,0,.43.22,11.79,11.79,0,0,0,1.37.42c.47.12.94.23,1.4.32.92.18,1.8.32,2.62.43,1.62.21,3,.36,3.93.54S362.06,373.08,362.07,373.31Z"/><path class="cls-2" d="M361.44,373.59c-.09-.48,2.2-1.2,5.78-2.25a51.15,51.15,0,0,0,6-2.16,6,6,0,0,0,1.3-.73c.15-.12.21-.22.19-.21s0,.14,0,.07a3,3,0,0,0-.22-.54c-.15-.3-.29-.6-.44-.91a15.48,15.48,0,0,0-.93-1.67,7.11,7.11,0,0,0-1.1-1.3,4.68,4.68,0,0,0-.61-.49,3.19,3.19,0,0,0-.56-.31,1.47,1.47,0,0,0-.91-.08,3.14,3.14,0,0,0-1.08.63,23.7,23.7,0,0,0-4.19,4.55c-2.05,2.92-2.6,5.21-3.11,5.13-.22,0-.39-.65-.31-1.78a12.94,12.94,0,0,1,1.32-4.56,20.17,20.17,0,0,1,4.21-5.71,6.06,6.06,0,0,1,2.17-1.38,4.62,4.62,0,0,1,3,.05,5.84,5.84,0,0,1,1.28.62,8.13,8.13,0,0,1,1,.79A9.6,9.6,0,0,1,376,363.3a17.44,17.44,0,0,1,1.15,2.08l.45,1a5.57,5.57,0,0,1,.45,1.41,3.19,3.19,0,0,1-.34,2,4,4,0,0,1-1.14,1.26,8.6,8.6,0,0,1-2.09,1,31.79,31.79,0,0,1-6.72,1.61C363.88,374.18,361.51,374,361.44,373.59Z"/><rect class="cls-1" x="333.04" y="371.97" width="45.07" height="12.81" transform="translate(708.19 759.51) rotate(-179.55)"/><rect class="cls-2" x="349.61" y="372.08" width="40.74" height="12.81" transform="translate(737 759.85) rotate(-179.55)"/><polygon class="cls-3" points="377.9 372.14 377.62 385.01 372.86 384.91 373.19 372.11 377.9 372.14"/><polygon class="cls-3" points="344.15 371.94 343.69 384.69 338.46 384.65 338.75 371.84 344.15 371.94"/><rect class="cls-2" x="389.89" y="400.5" width="17.37" height="21.93" transform="translate(793.93 826.02) rotate(-179.55)"/><polygon class="cls-3" points="400.56 401.21 400.25 422.44 397.5 422.42 398.09 401.19 400.56 401.21"/><polygon class="cls-1" points="380 401.05 389.97 401.12 407.35 401.26 389.95 403.55 389.81 422.36 379.84 422.28 380 401.05"/><polygon class="cls-3" points="385.43 401.09 385.04 422.32 382.08 422.3 382.56 401.06 385.43 401.09"/><path class="cls-1" d="M393.32,394.63c0,.32-1.14.71-3.13.88a11.59,11.59,0,0,1-3.64-.3,2.5,2.5,0,0,1-1.41-1,2,2,0,0,1-.32-1.07,3.46,3.46,0,0,1,.08-.8,12.76,12.76,0,0,1,.68-2.24,5.92,5.92,0,0,1,.66-1.17,4,4,0,0,1,1.08-1,2.41,2.41,0,0,1,1.86-.32,3.21,3.21,0,0,1,1.27.71,9.37,9.37,0,0,1,2.29,2.88c.94,1.9.8,3.25.5,3.3s-.81-1-1.94-2.37a11.76,11.76,0,0,0-2.22-2.05,1,1,0,0,0-.42-.21h0v0l-.07.05a2.15,2.15,0,0,0-.4.45,4.84,4.84,0,0,0-.39.72,15.56,15.56,0,0,0-.59,1.82l0,.21-.15,0-.14,0h0A1.22,1.22,0,0,0,387,393l.05-.06h0a.84.84,0,0,0,.2.11,15.88,15.88,0,0,0,3,.7C392.09,394.07,393.31,394.28,393.32,394.63Z"/><path class="cls-1" d="M393,394.78c-.07-.37,1.23-.86,3.23-1.52a29.81,29.81,0,0,0,3.35-1.28,2.81,2.81,0,0,0,.66-.38c.05-.05.05-.08,0,0a.53.53,0,0,0-.07.26c-.11-.24-.23-.48-.35-.73a9.32,9.32,0,0,0-.5-.9,3.91,3.91,0,0,0-.56-.68,2.09,2.09,0,0,0-.55-.38.54.54,0,0,0-.3-.06,1.36,1.36,0,0,0-.5.29,13.51,13.51,0,0,0-2.37,2.46c-1.2,1.57-1.59,2.83-2,2.78s-.61-1.54.36-3.72a11.14,11.14,0,0,1,2.38-3.35,3.74,3.74,0,0,1,1.35-.86,3,3,0,0,1,1.93,0,3.72,3.72,0,0,1,.8.39,5.64,5.64,0,0,1,1.64,1.65,9.33,9.33,0,0,1,.67,1.22l.25.56a3.41,3.41,0,0,1,.29.89,2.18,2.18,0,0,1-.24,1.37,2.37,2.37,0,0,1-.74.81,5.12,5.12,0,0,1-1.27.63,16.43,16.43,0,0,1-3.87.85C394.37,395.3,393,395.13,393,394.78Z"/><rect class="cls-1" x="376.87" y="393.86" width="25.54" height="7.26" transform="translate(776.16 798.01) rotate(-179.55)"/><rect class="cls-2" x="386.26" y="393.93" width="23.08" height="7.26" transform="translate(792.49 798.2) rotate(-179.55)"/><polygon class="cls-3" points="402.29 393.96 402.13 401.25 399.44 401.2 399.62 393.94 402.29 393.96"/><polygon class="cls-3" points="383.16 393.85 382.9 401.07 379.94 401.05 380.1 393.79 383.16 393.85"/><rect class="cls-1" x="13.74" width="132.38" height="219.12"/><rect class="cls-2" x="9.34" width="132.38" height="219.12"/><rect class="cls-3" x="14.97" y="4.44" width="121.1" height="210.23"/><rect class="cls-2" x="38.03" y="31.76" width="74.47" height="155.6"/><path class="cls-1" d="M38,132.3c-.17-14.54,12.89-28.73,27.29-30.76,6.86-1,14.15.4,20.57-2.23C97.33,94.62,101,79.41,112.5,74.9L113,187.36H38Z"/></g><g id="Floor"><path class="cls-4" d="M440.47,422.49c0,.15-98.61.26-220.22.26S0,422.64,0,422.49s98.59-.26,220.25-.26S440.47,422.35,440.47,422.49Z"/></g><g id="Device"><path class="cls-4" d="M399.83,350.57l-206.27-.1A11.55,11.55,0,0,1,182,338.91l.16-306.07A11.54,11.54,0,0,1,193.74,21.3L400,21.41A11.53,11.53,0,0,1,411.55,33L411.39,339A11.54,11.54,0,0,1,399.83,350.57Z"/><rect class="cls-5" x="188.91" y="44.1" width="214.91" height="274.9"/><path class="cls-6" d="M305.51,334a8.8,8.8,0,1,1-8.8-8.8A8.81,8.81,0,0,1,305.51,334Z"/><rect class="cls-6" x="262.32" y="30.83" width="69.08" height="3.64" rx="1.22"/><path class="cls-1" d="M394.67,281h0a2.58,2.58,0,0,1-2.59-2.58l.11-195.16a2.58,2.58,0,0,1,2.58-2.58h0a2.57,2.57,0,0,1,2.58,2.58l-.1,195.16A2.58,2.58,0,0,1,394.67,281Z"/><path class="cls-4" d="M341.38,66.59c0,.15-19.94.25-44.53.24s-44.53-.14-44.53-.28,19.93-.25,44.53-.24S341.38,66.45,341.38,66.59Z"/><path class="cls-4" d="M209.79,71.54l.29,0,.79,0,2.94-.07-.09.09c0-.65,0-1.36,0-2.13,0-.4,0-.77,0-1.23a1.15,1.15,0,0,1,1-.92c.48,0,.89,0,1.41,0a1.18,1.18,0,0,1,1,1.16c0,1,0,2,0,3.11l-.15-.16,3.71,0-.17.16c0-1.49,0-3,0-4.62,0-.4,0-.79,0-1.18a1.19,1.19,0,0,0-.52-.86l-1.62-1.6-1.56-1.55L216,60.9a1.82,1.82,0,0,0-.76-.57,1,1,0,0,0-.84.16c-.22.19-.46.46-.68.68l-1.34,1.34c-.83.87-1.71,1.67-2.34,2.41a2.58,2.58,0,0,0-.19,1.38v1.3c0,.8,0,1.5,0,2.11s0,1,0,1.35a4.57,4.57,0,0,1,0,.48,2.23,2.23,0,0,1,0-.44c0-.37,0-.8,0-1.32l-.05-2.13c0-.42,0-.86,0-1.33v-.73a1.61,1.61,0,0,1,.21-.79c.69-.84,1.5-1.58,2.35-2.48L213.51,61a9.71,9.71,0,0,1,.72-.71,1.25,1.25,0,0,1,1.09-.22,2.08,2.08,0,0,1,.9.64l.76.75L218.55,63l1.62,1.59a1.53,1.53,0,0,1,.62,1.09c0,.39,0,.79,0,1.19q0,2.37,0,4.62v.16h-.16l-3.71,0h-.16v-.15c0-1.08,0-2.12,0-3.11a.89.89,0,0,0-.74-.89c-.42,0-.93,0-1.34,0a.87.87,0,0,0-.78.71c0,.36,0,.8,0,1.18v2.23h-.1l-3,0-.78,0C209.87,71.56,209.78,71.55,209.79,71.54Z"/><path class="cls-4" d="M379.86,61.61a.13.13,0,0,0-.11,0L371,61.51h-3.32l-.07-.5-.13-1a.14.14,0,0,0-.14-.13h-2.43c-.19,0-.32,0-.32.16s.13.15.32.16l2.22,0,1.24,9.58a.15.15,0,0,0,.14.13l7.14,0h2.69c.22,0,.34,0,.34-.16s-.12-.15-.34-.16l-9.58-.13-.23-1.69,10.07.13h0a.16.16,0,0,0,.15-.12l.74-4,.4-2.16A.19.19,0,0,0,379.86,61.61Zm-12.13.22,11.69.15-1,5.61-7.17,0H368.5Z"/><path class="cls-4" d="M371.19,72.23a1.13,1.13,0,0,0-.4-.67,1.2,1.2,0,0,0-1.13-.2,1.2,1.2,0,0,0,0,2.27,1.16,1.16,0,0,0,.4.07,1.2,1.2,0,0,0,.73-.25,1.14,1.14,0,0,0,.42-.67.8.8,0,0,0,0-.27A.65.65,0,0,0,371.19,72.23Zm-1.41,1a.81.81,0,0,1-.51-.75.79.79,0,0,1,.53-.73.65.65,0,0,1,.27-.05.79.79,0,0,1,.48.16.78.78,0,0,1,.3.44.45.45,0,0,1,0,.17v0s0,.1,0,.17a.84.84,0,0,1-.32.44A.81.81,0,0,1,369.78,73.24Z"/><path class="cls-4" d="M377.6,72.28a1.16,1.16,0,0,0-1.53-.87,1.2,1.2,0,0,0,0,2.27,1.12,1.12,0,0,0,.4.07,1.17,1.17,0,0,0,1.15-.91.87.87,0,0,0,0-.28A.83.83,0,0,0,377.6,72.28Zm-1.41,1a.82.82,0,0,1-.51-.75.81.81,0,0,1,.52-.73.72.72,0,0,1,.28,0,.79.79,0,0,1,.48.16.83.83,0,0,1,.3.44l0,.17v0s0,.1,0,.17a.84.84,0,0,1-.32.44A.81.81,0,0,1,376.19,73.29Z"/><path class="cls-4" d="M243.76,289.53c0,1.42-1,2.28-2.72,2.27h-1.79v2.1h-.7v-6.65H241C242.74,287.25,243.76,288.11,243.76,289.53Zm-.7,0c0-1.06-.7-1.67-2-1.67h-1.76v3.33H241C242.35,291.19,243.06,290.58,243.06,289.53Z"/><path class="cls-4" d="M249.74,288.91v5h-.65V293a2,2,0,0,1-1.79,1,1.94,1.94,0,0,1-2.11-2.15v-2.9h.67v2.83c0,1.07.55,1.61,1.5,1.61a1.63,1.63,0,0,0,1.71-1.82v-2.62Z"/><path class="cls-4" d="M254.16,288.87v.66H254a1.61,1.61,0,0,0-1.68,1.84v2.55h-.68v-5h.64v1A1.89,1.89,0,0,1,254.16,288.87Z"/><path class="cls-4" d="M254.82,291.41a2.45,2.45,0,0,1,2.58-2.53,2.17,2.17,0,0,1,2,1l-.5.35a1.68,1.68,0,0,0-1.45-.75,2,2,0,0,0,0,3.9,1.68,1.68,0,0,0,1.46-.73l.5.34a2.2,2.2,0,0,1-2,1A2.47,2.47,0,0,1,254.82,291.41Z"/><path class="cls-4" d="M265.2,291v2.9h-.67v-2.84a1.39,1.39,0,0,0-1.5-1.59,1.63,1.63,0,0,0-1.75,1.8v2.63h-.67v-7.06h.68v2.93a2.1,2.1,0,0,1,1.87-.91A1.91,1.91,0,0,1,265.2,291Z"/><path class="cls-4" d="M270.81,290.82v3.1h-.65v-.78a1.88,1.88,0,0,1-1.72.83c-1.13,0-1.82-.59-1.82-1.46s.49-1.41,1.93-1.41h1.59v-.31c0-.85-.49-1.32-1.42-1.32a2.56,2.56,0,0,0-1.66.59l-.31-.5a3.19,3.19,0,0,1,2-.68A1.78,1.78,0,0,1,270.81,290.82Zm-.67,1.6v-.82h-1.57c-1,0-1.29.38-1.29.89s.47.94,1.27.95A1.62,1.62,0,0,0,270.14,292.42Z"/><path class="cls-4" d="M272,293.35l.31-.53a3,3,0,0,0,1.77.56c1,0,1.35-.32,1.35-.82,0-1.3-3.25-.27-3.25-2.25,0-.82.71-1.43,2-1.43a3.44,3.44,0,0,1,1.77.47l-.29.54a2.61,2.61,0,0,0-1.48-.43c-.9,0-1.3.36-1.3.83,0,1.35,3.24.33,3.24,2.26,0,.86-.76,1.42-2.06,1.42A3.37,3.37,0,0,1,272,293.35Z"/><path class="cls-4" d="M281.65,291.64h-4.18a1.84,1.84,0,0,0,2,1.74,2,2,0,0,0,1.53-.65l.38.44a2.65,2.65,0,0,1-4.56-1.74,2.41,2.41,0,0,1,2.45-2.53,2.38,2.38,0,0,1,2.42,2.54C281.66,291.48,281.65,291.56,281.65,291.64Zm-4.18-.51H281a1.77,1.77,0,0,0-3.54,0Z"/><path class="cls-4" d="M292.87,288.93l-1.89,5h-.64l-1.58-4.1-1.58,4.1h-.63l-1.88-5h.64l1.57,4.25,1.61-4.25h.58l1.59,4.25,1.59-4.25Z"/><path class="cls-4" d="M297.51,290.84v3.09h-.65v-.77a1.87,1.87,0,0,1-1.72.82c-1.13,0-1.82-.59-1.82-1.45s.49-1.42,1.93-1.42h1.59v-.3c0-.86-.49-1.32-1.42-1.33a2.54,2.54,0,0,0-1.66.59l-.31-.5a3.19,3.19,0,0,1,2-.67A1.77,1.77,0,0,1,297.51,290.84Zm-.67,1.59v-.81h-1.57c-1,0-1.29.38-1.29.9s.47.94,1.27.94A1.6,1.6,0,0,0,296.84,292.43Z"/><path class="cls-4" d="M298.65,293.37l.31-.54a2.94,2.94,0,0,0,1.77.56c.95,0,1.34-.32,1.34-.81,0-1.3-3.24-.28-3.24-2.26,0-.81.71-1.42,2-1.42a3.35,3.35,0,0,1,1.77.47l-.3.54a2.5,2.5,0,0,0-1.47-.43c-.9,0-1.3.35-1.3.82,0,1.35,3.24.34,3.24,2.26,0,.86-.76,1.43-2.06,1.42A3.37,3.37,0,0,1,298.65,293.37Z"/><path class="cls-4" d="M305.79,293.37l.31-.53a3,3,0,0,0,1.77.56c1,0,1.35-.32,1.35-.82,0-1.3-3.25-.28-3.24-2.25,0-.82.7-1.43,2-1.43a3.35,3.35,0,0,1,1.77.47l-.29.54a2.61,2.61,0,0,0-1.48-.43c-.9,0-1.3.35-1.3.83,0,1.35,3.24.33,3.24,2.25,0,.87-.76,1.43-2.06,1.43A3.37,3.37,0,0,1,305.79,293.37Z"/><path class="cls-4" d="M315.64,288.94v5H315V293a2,2,0,0,1-1.8,1,1.94,1.94,0,0,1-2.11-2.15v-2.9h.68v2.84a1.4,1.4,0,0,0,1.51,1.6,1.62,1.62,0,0,0,1.7-1.81v-2.63Z"/><path class="cls-4" d="M317,291.45a2.46,2.46,0,0,1,2.58-2.54,2.18,2.18,0,0,1,2,1l-.51.34a1.7,1.7,0,0,0-1.45-.74,1.95,1.95,0,0,0,0,3.89,1.64,1.64,0,0,0,1.45-.73l.51.35a2.22,2.22,0,0,1-2,1A2.46,2.46,0,0,1,317,291.45Z"/><path class="cls-4" d="M322.3,291.45a2.47,2.47,0,0,1,2.58-2.54,2.16,2.16,0,0,1,1.95,1l-.5.34a1.7,1.7,0,0,0-1.45-.74,2,2,0,0,0,0,3.9,1.69,1.69,0,0,0,1.46-.73l.5.34a2.2,2.2,0,0,1-2,1A2.47,2.47,0,0,1,322.3,291.45Z"/><path class="cls-4" d="M332.42,291.66h-4.18a1.85,1.85,0,0,0,2,1.74,2,2,0,0,0,1.53-.65l.38.43a2.44,2.44,0,0,1-1.93.82,2.48,2.48,0,0,1-2.62-2.55,2.41,2.41,0,0,1,2.44-2.54,2.37,2.37,0,0,1,2.42,2.54C332.43,291.51,332.42,291.59,332.42,291.66Zm-4.18-.5h3.55a1.78,1.78,0,0,0-3.55,0Z"/><path class="cls-4" d="M333.12,293.38l.3-.53a3.06,3.06,0,0,0,1.78.56c.95,0,1.34-.32,1.34-.81,0-1.31-3.24-.28-3.24-2.26,0-.82.71-1.42,2-1.42a3.44,3.44,0,0,1,1.77.46l-.3.55a2.5,2.5,0,0,0-1.47-.43c-.9,0-1.3.35-1.3.82,0,1.35,3.24.34,3.24,2.26,0,.86-.76,1.42-2.07,1.42A3.29,3.29,0,0,1,333.12,293.38Z"/><path class="cls-4" d="M337.77,293.39l.3-.54a3.07,3.07,0,0,0,1.78.57c.95,0,1.34-.33,1.34-.82,0-1.3-3.24-.28-3.24-2.26,0-.81.7-1.42,2-1.42a3.35,3.35,0,0,1,1.77.47l-.3.54a2.52,2.52,0,0,0-1.47-.43c-.9,0-1.3.35-1.3.82,0,1.36,3.24.34,3.24,2.26,0,.86-.76,1.43-2.07,1.42A3.36,3.36,0,0,1,337.77,293.39Z"/><path class="cls-4" d="M343.88,288.37V289h1.54v.57H343.9V294h-.67v-4.43h-.9V289h.9v-.62a1.37,1.37,0,0,1,1.51-1.48,1.59,1.59,0,0,1,1,.31l-.23.51a1.11,1.11,0,0,0-.74-.25A.82.82,0,0,0,343.88,288.37Z"/><path class="cls-4" d="M350.84,289v5h-.65v-.91a2,2,0,0,1-1.8,1,1.93,1.93,0,0,1-2.11-2.15V289H347v2.83c0,1.07.55,1.61,1.5,1.61a1.63,1.63,0,0,0,1.71-1.81V289Z"/><path class="cls-4" d="M352.74,286.91h.67v7h-.67Z"/><path class="cls-7" d="M254.44,270.8h-3.59v-1.7H260v1.7h-3.59v9.13h-2Z"/><path class="cls-7" d="M269.5,275.2v4.73h-1.94v-4.49c0-1.47-.72-2.18-2-2.18a2.19,2.19,0,0,0-2.3,2.49v4.18h-1.94V268.45h1.94v4.18a3.68,3.68,0,0,1,2.75-1.05C268,271.58,269.5,272.71,269.5,275.2Z"/><path class="cls-7" d="M278.87,275.09v4.84H277v-1a2.92,2.92,0,0,1-2.6,1.11c-1.88,0-3.07-1-3.07-2.47s.92-2.46,3.43-2.46h2.13V275c0-1.13-.68-1.79-2.05-1.79a4.1,4.1,0,0,0-2.51.82l-.76-1.41a5.84,5.84,0,0,1,3.5-1C277.49,271.58,278.87,272.71,278.87,275.09Zm-1.94,2.25v-.95h-2c-1.32,0-1.67.49-1.67,1.09s.59,1.15,1.58,1.15A2.09,2.09,0,0,0,276.93,277.34Z"/><path class="cls-7" d="M289.47,275.2v4.73h-1.93v-4.49c0-1.47-.73-2.18-2-2.18a2.2,2.2,0,0,0-2.3,2.49v4.18h-1.93v-8.26h1.84v1.07a3.57,3.57,0,0,1,2.84-1.16C288,271.58,289.47,272.71,289.47,275.2Z"/><path class="cls-7" d="M295.3,276.39l-1.44,1.36v2.18h-1.93V268.45h1.93v6.93l4-3.71h2.31l-3.44,3.46,3.77,4.8h-2.35Z"/><path class="cls-7" d="M313.76,271.67l-3.87,8.92c-.76,1.87-1.81,2.45-3.18,2.45a3.45,3.45,0,0,1-2.22-.76l.78-1.43a2.07,2.07,0,0,0,1.42.58c.68,0,1.08-.33,1.45-1.15l.14-.32-3.6-8.29h2l2.6,6.11,2.61-6.11Z"/><path class="cls-7" d="M314.05,275.8a4.4,4.4,0,1,1,4.39,4.23A4.15,4.15,0,0,1,314.05,275.8Zm6.85,0a2.45,2.45,0,1,0-2.46,2.58A2.4,2.4,0,0,0,320.9,275.8Z"/><path class="cls-7" d="M332.69,271.67v8.26h-1.84v-1.05a3.37,3.37,0,0,1-2.66,1.15c-2.11,0-3.55-1.15-3.55-3.64v-4.72h1.93v4.45c0,1.5.71,2.21,1.93,2.21a2.17,2.17,0,0,0,2.26-2.48v-4.18Z"/><path class="cls-7" d="M334.87,278.83a1.19,1.19,0,0,1,1.25-1.19,1.18,1.18,0,0,1,1.23,1.19,1.19,1.19,0,0,1-1.23,1.2A1.21,1.21,0,0,1,334.87,278.83Zm.11-9.73h2.29l-.39,7.24h-1.53Z"/></g><g id="Character_2" data-name="Character 2"><path class="cls-8" d="M321.61,107.09l-2.92,41.36a12.91,12.91,0,0,1-12.87,12h0A12.89,12.89,0,0,1,293,146.7c.25-3.94.49-7.16.49-7.16s-10-1.56-10.14-11.57c-.07-5.78.93-18.9,1.78-29a13.14,13.14,0,0,1,13.09-12h6.05A18.54,18.54,0,0,1,321.61,107.09Z"/><path class="cls-9" d="M293.45,139.54a24.14,24.14,0,0,0,13-3.86s-3.22,7.29-13.21,6.39Z"/><path class="cls-4" d="M287,108.57c.18.19,1.26-.61,2.8-.61s2.67.78,2.83.59-.1-.42-.59-.78a3.91,3.91,0,0,0-2.26-.7,3.8,3.8,0,0,0-2.23.72C287,108.15,286.88,108.49,287,108.57Z"/><path class="cls-4" d="M300.69,112.84a1.43,1.43,0,0,0,1.37,1.45,1.38,1.38,0,0,0,1.48-1.29,1.44,1.44,0,0,0-1.38-1.45A1.36,1.36,0,0,0,300.69,112.84Z"/><path class="cls-4" d="M287,112.84a1.44,1.44,0,0,0,1.38,1.45A1.37,1.37,0,0,0,289.8,113a1.44,1.44,0,0,0-1.38-1.45A1.38,1.38,0,0,0,287,112.84Z"/><path class="cls-4" d="M301.83,108.78c.18.19,1.26-.61,2.8-.61s2.67.77,2.83.59-.09-.42-.59-.78a3.85,3.85,0,0,0-2.27-.7,3.73,3.73,0,0,0-2.22.72C301.9,108.36,301.74,108.7,301.83,108.78Z"/><path class="cls-4" d="M296.36,120.75a10.29,10.29,0,0,0-2.5-.45c-.39,0-.77-.12-.83-.39a2,2,0,0,1,.26-1.16l1.16-3c1.62-4.26,2.78-7.77,2.61-7.83s-1.62,3.34-3.23,7.6c-.39,1-.76,2-1.11,3a2.26,2.26,0,0,0-.21,1.54,1,1,0,0,0,.65.57,2.94,2.94,0,0,0,.66.1A10,10,0,0,0,296.36,120.75Z"/><path class="cls-4" d="M300.89,121.81c-.25,0-.26,1.66-1.69,2.84s-3.2,1-3.22,1.24.4.32,1.15.34a4.16,4.16,0,0,0,2.69-.93,3.61,3.61,0,0,0,1.3-2.38C301.19,122.22,301,121.8,300.89,121.81Z"/><path class="cls-4" d="M301.93,103.2c.15.42,1.68.22,3.49.44s3.26.71,3.5.34c.11-.18-.14-.58-.73-1a6.12,6.12,0,0,0-5.33-.59C302.2,102.68,301.86,103,301.93,103.2Z"/><path class="cls-4" d="M286.73,103.93c.27.35,1.33,0,2.61,0s2.35.23,2.6-.13c.11-.18-.06-.53-.53-.86a3.59,3.59,0,0,0-2.12-.57,3.55,3.55,0,0,0-2.08.7C286.76,103.4,286.61,103.76,286.73,103.93Z"/><path class="cls-8" d="M318.23,114.6c.17-.07,6.88-2,6.66,4.81s-7,5.22-7.05,5S318.23,114.6,318.23,114.6Z"/><path class="cls-9" d="M320,121.9s.11.09.31.19a1.18,1.18,0,0,0,.89,0,3,3,0,0,0,1.45-2.61,3.78,3.78,0,0,0-.28-1.71,1.37,1.37,0,0,0-.87-.95.62.62,0,0,0-.71.31c-.1.18-.06.32-.09.33s-.15-.12-.08-.4a.74.74,0,0,1,.28-.42.87.87,0,0,1,.66-.15,1.68,1.68,0,0,1,1.22,1.1,4.12,4.12,0,0,1,.35,1.92c-.09,1.38-.84,2.65-1.84,2.9a1.3,1.3,0,0,1-1.08-.21C320,122.07,320,121.92,320,121.9Z"/><path class="cls-4" d="M322,114.37a3.59,3.59,0,0,0-3.29,1.69c-.45,1-.55,2.08-1,3.06a2.43,2.43,0,0,1-2.49,1.62,2.12,2.12,0,0,1-1.43-1.56,5.87,5.87,0,0,1,0-2.21c.4-3.2,1.08-6.37,1.2-9.59a16.41,16.41,0,0,0-2-9.3c-1.69-2.75-4.79-4.76-8-4.51-2.13.18-4.08,1.29-6.2,1.58a8.34,8.34,0,0,1-6.94-2.32,15.64,15.64,0,0,0-1.3-.93,4,4,0,0,1,.72-2.12c4.19-3.88,11.75-5,17.29-3.56a20,20,0,0,1,13.11,10.49c2.38,5.19,1.67,12.41.36,17.66"/><path class="cls-4" d="M284,97.21a6.53,6.53,0,0,0,5.44,3.51,18,18,0,0,0,6.68-1,52,52,0,0,1,10.28-1.52c.34,0,.75,0,.93-.28s-.14-.84-.5-1.12c-3-2.33-10.19-3.77-14-3.93A11.15,11.15,0,0,0,283,97.56"/><path class="cls-7" d="M285,97.47a12.85,12.85,0,0,1,7.46-3.37c8.66-.74,22.85,1.92,30.31,16.83a34.26,34.26,0,0,0,1.56-7.92c0-2-1.22-14.17-13.7-18C310.61,85,291.82,77.86,285,97.47Z"/><g class="cls-10"><path d="M285,97.47a12.21,12.21,0,0,1,8.35-3.8c7.75-.34,22.39,3.21,29.42,17.26a34.26,34.26,0,0,0,1.56-7.92c0-2-1.22-14.17-13.7-18C310.61,85,291.82,77.86,285,97.47Z"/></g><path class="cls-7" d="M321.58,108.81c-3.74-6.29-9.33-10.61-15.37-14.39s-16-7.5-22.9-9.33a15.18,15.18,0,0,0-6.33-.66,5.73,5.73,0,0,0-4.69,3.84c-.65,2.59,3.95,6.6,6.12,8.17a71.39,71.39,0,0,0,6.57,3.88s-.06-4.83,7.64-5.8C303.12,93.19,321.9,109.08,321.58,108.81Z"/><path class="cls-5" d="M307.6,90a27.58,27.58,0,0,0-14.51-3.52,7,7,0,0,1,2.23-.31,20,20,0,0,1,5.39.56,19.72,19.72,0,0,1,5.05,2A7.11,7.11,0,0,1,307.6,90Z"/><path class="cls-4" d="M359.29,253.17c0,.14-25.6.26-57.18.26s-57.18-.12-57.18-.26,25.6-.26,57.18-.26S359.29,253,359.29,253.17Z"/><path class="cls-8" d="M253.19,171.34,238.47,178l-22.84-18.62-7,11s13,15,17.82,20.16,8,7.84,11.84,7.36,25.49-10.72,25.49-10.72S258.71,172,253.19,171.34Z"/><path class="cls-8" d="M190.61,150s2.87,2.15,4.74,2,9-.17,9.52-.14,7.46,3.81,7.46,3.81l5.08,4.89-8,11.08s-1.32-1.51-2.21-1.4-11.85-.83-13.5-1.38S190,168,189.42,167s-.68-1.73.84-3.05a2.49,2.49,0,0,1-.56-3.5s-2.28-1.67-1.46-3.21c0,0-1.3-.54-1.51-1.35a8.77,8.77,0,0,1,.09-2.57l3.27-1S189.11,151.13,190.61,150Z"/><path class="cls-9" d="M189.32,152.5s.16-.07.43-.14a4.24,4.24,0,0,1,1.22-.25,3,3,0,0,1,1.77.69,2.07,2.07,0,0,1,.68,2.25,1.57,1.57,0,0,1-.88.95,5.93,5.93,0,0,1-1.07.31l-1.76.36a5.5,5.5,0,0,1-1.65.21,5.36,5.36,0,0,1,1.57-.57l1.73-.47c.65-.16,1.38-.32,1.57-1a1.6,1.6,0,0,0-.5-1.71,2.86,2.86,0,0,0-1.48-.68,7.38,7.38,0,0,0-1.17.08C189.49,152.57,189.32,152.54,189.32,152.5Z"/><path class="cls-9" d="M193.42,155.37a2.6,2.6,0,0,1,.77-.21,11.27,11.27,0,0,1,2.15-.24,5.61,5.61,0,0,1,3.17.81,2.73,2.73,0,0,1,1.19,1.63,1.87,1.87,0,0,1-.82,2,4.93,4.93,0,0,1-2.07.43l-1.88.15-3.18.22a17.92,17.92,0,0,1-2.94.07,15.21,15.21,0,0,1,2.91-.44l3.17-.33,1.87-.18a4.82,4.82,0,0,0,1.86-.37,1.36,1.36,0,0,0,.58-1.47,2.2,2.2,0,0,0-1-1.34,5.5,5.5,0,0,0-2.89-.85C194.56,155.25,193.43,155.47,193.42,155.37Z"/><path class="cls-9" d="M200.18,159.38s.21,0,.42.31a1.61,1.61,0,0,1,.19,1.41,2.47,2.47,0,0,1-1.54,1.45,8.86,8.86,0,0,1-2.49.33c-3.44.16-6.17.83-6.21.68a17.53,17.53,0,0,1,6.19-1.21,8.85,8.85,0,0,0,2.35-.26,2.09,2.09,0,0,0,1.35-1.11,1.55,1.55,0,0,0,0-1.19C200.3,159.53,200.16,159.41,200.18,159.38Z"/><path class="cls-9" d="M211.53,161.31a3.52,3.52,0,0,1-1.45.55,10.22,10.22,0,0,1-3.73.17,10.64,10.64,0,0,1-3.56-1.14,3.62,3.62,0,0,1-1.25-.92,21.15,21.15,0,0,0,4.88,1.55A20.72,20.72,0,0,0,211.53,161.31Z"/><path class="cls-9" d="M200.13,156.2c.07-.13.78.12,1.65,0s1.52-.49,1.62-.37-.5.77-1.56.89S200.05,156.31,200.13,156.2Z"/><path class="cls-9" d="M199.35,167.12a5,5,0,0,1,4.36-4.07,22.69,22.69,0,0,0-2.49,1.7A20.52,20.52,0,0,0,199.35,167.12Z"/><polygon class="cls-7" points="175.62 195.89 219.06 195.89 227.12 259.41 167.14 259.41 175.62 195.89"/><polygon class="cls-7" points="219.06 195.89 224.08 195.89 238.9 259.41 227.12 259.41 219.06 195.89"/><polygon class="cls-11" points="219.06 195.89 224.08 195.89 238.9 259.41 227.12 259.41 219.06 195.89"/><path class="cls-9" d="M194.8,162.86s.13-.07.35,0a1.35,1.35,0,0,1,.76.59,1.64,1.64,0,0,1,.14,1.44,2.44,2.44,0,0,1-1.18,1.28,4.83,4.83,0,0,1-2.21.44l.19-.13c-.56,1.09-1.24,1.57-1.29,1.51s.45-.65.89-1.7l.05-.11.14,0a5.29,5.29,0,0,0,2-.45,2,2,0,0,0,1-1,1.27,1.27,0,0,0,0-1.08C195.3,163,194.78,162.93,194.8,162.86Z"/><path class="cls-7" d="M186.66,198.66a5.93,5.93,0,0,1,.09-1.29c.1-.83.26-2,.51-3.48.47-2.93,1.26-7,2.2-11.38s1.79-8.44,2.35-11.34c.27-1.38.49-2.53.67-3.45a7.87,7.87,0,0,1,.29-1.26,5.92,5.92,0,0,1-.09,1.29c-.09.83-.26,2-.5,3.48-.48,2.93-1.27,7-2.21,11.38s-1.79,8.44-2.35,11.34c-.27,1.38-.49,2.53-.67,3.45A6.43,6.43,0,0,1,186.66,198.66Z"/><path class="cls-7" d="M209.59,199.3a7.47,7.47,0,0,1-.48-1.46c-.29-1.05-.67-2.4-1.13-4-.92-3.41-2.17-8.13-3.51-13.35s-2.53-10-3.37-13.39l-1-4.07a7.49,7.49,0,0,1-.28-1.51,9.7,9.7,0,0,1,.48,1.46c.29,1,.66,2.4,1.12,4,.93,3.41,2.17,8.13,3.51,13.35s2.54,10,3.37,13.39l1,4.08A9.18,9.18,0,0,1,209.59,199.3Z"/><path class="cls-4" d="M238.9,259.41a12.66,12.66,0,0,1-2.09-1.46c-1.25-1-2.95-2.3-4.81-3.81l-.94-.77.38-.06c-1.17,1.76-2.23,3.3-3,4.4a9.77,9.77,0,0,1-1.32,1.7,9.54,9.54,0,0,1,1-1.89c.7-1.14,1.7-2.72,2.85-4.49l.16-.24.22.18,1,.76c1.86,1.51,3.52,2.91,4.71,3.93A12.61,12.61,0,0,1,238.9,259.41Z"/><path class="cls-4" d="M221.7,195.89c.14,0,2.39,12.78,5,28.59s4.64,28.66,4.5,28.69-2.39-12.78-5-28.6S221.56,195.91,221.7,195.89Z"/><path class="cls-5" d="M221.59,213.92a12.14,12.14,0,0,1-1,1,17.67,17.67,0,0,1-3.31,2.25,19.62,19.62,0,0,1-6,2.06,17.74,17.74,0,0,1-8.37-.48,10.47,10.47,0,0,1-4.2-2.56,8,8,0,0,1-2.28-4.81,6.22,6.22,0,0,1,2.16-5.22A5,5,0,0,1,201.4,205a5.73,5.73,0,0,1,3.06.63,7.25,7.25,0,0,1,2.46,2,8.36,8.36,0,0,1,1.4,3,14.7,14.7,0,0,1,0,6.63,22.45,22.45,0,0,1-6.82,12,20.77,20.77,0,0,1-5.95,3.82,14.87,14.87,0,0,1-6.78,1.16,11.55,11.55,0,0,1-6.18-2.4,8.76,8.76,0,0,1-3.31-5.4,8.21,8.21,0,0,1,1.17-5.92,5.57,5.57,0,0,1,4.95-2.67,3.61,3.61,0,0,1,2.45,1.32,5.45,5.45,0,0,1,1.11,2.42,8.68,8.68,0,0,1-.57,4.88,13.1,13.1,0,0,1-5.57,6.21,19.73,19.73,0,0,1-6,2.16,31.05,31.05,0,0,1-4,.5l-1,.05a2,2,0,0,1-.36,0l.36,0,1-.09a37.07,37.07,0,0,0,3.94-.6,19.72,19.72,0,0,0,5.86-2.21,12.81,12.81,0,0,0,5.37-6.09,8.19,8.19,0,0,0,.52-4.67,4.91,4.91,0,0,0-1-2.23,3.15,3.15,0,0,0-2.17-1.16,5.16,5.16,0,0,0-4.53,2.49,7.75,7.75,0,0,0-1.07,5.58,8.21,8.21,0,0,0,3.14,5.1,11.05,11.05,0,0,0,5.91,2.28c4.41.34,8.9-1.73,12.34-4.86a21.94,21.94,0,0,0,6.67-11.67,14.17,14.17,0,0,0,0-6.41,7.78,7.78,0,0,0-1.31-2.77,6.68,6.68,0,0,0-2.28-1.92,5.38,5.38,0,0,0-2.81-.6,4.58,4.58,0,0,0-2.56,1.06,5.78,5.78,0,0,0-2,4.84,7.56,7.56,0,0,0,2.14,4.56,10,10,0,0,0,4,2.49,17.61,17.61,0,0,0,8.2.55,19.75,19.75,0,0,0,5.95-2,18.89,18.89,0,0,0,3.34-2.15c.37-.28.62-.52.8-.66Z"/><path class="cls-6" d="M283.07,151.89h-7.83c-2.53.88-22.86,18.18-22.86,18.18l11.49,18.06,14.9-8.71Z"/><path class="cls-6" d="M275.24,151.89l17.3-6.57s2.52,5.31,10.23,4.17,16.79-6.57,16.79-6.57,13.26,7.58,17.17,10.74S333.58,223,333.58,223l-1.77,19.83s1.39,1,1.39,4.42.12,5.68.12,5.68H264.79s-1.67-8-.41-11.11a41.16,41.16,0,0,1,3.34-6.32l1.08-30.56.38-27.27Z"/><path class="cls-6" d="M336.73,153.66s5.53,1.56,7.17,9.76,1.35,39.52,1.35,39.52l-30.89-6.69s4.19-13.15,4.19-14,8.5-22.07,8.8-22.52S336.73,153.66,336.73,153.66Z"/><path class="cls-4" d="M268.65,164.77c.15,0,.35,5.47.45,12.23s.06,12.23-.08,12.23-.35-5.47-.45-12.23S268.51,164.77,268.65,164.77Z"/><path class="cls-4" d="M322.42,167.7a4.83,4.83,0,0,1-.12,1.09c-.11.7-.29,1.7-.53,2.93-.48,2.46-1.23,5.85-2.21,9.55s-2,7-2.78,9.41c-.39,1.19-.73,2.15-1,2.81a4.22,4.22,0,0,1-.44,1,5.32,5.32,0,0,1,.24-1.07c.23-.78.5-1.73.82-2.85.7-2.41,1.65-5.73,2.63-9.43s1.78-7.06,2.35-9.5l.69-2.89A4.26,4.26,0,0,1,322.42,167.7Z"/><path class="cls-4" d="M319.52,167a38.47,38.47,0,0,1-.08,6.3,37.15,37.15,0,0,1-.59,6.28,39.08,39.08,0,0,1,.07-6.3A37.73,37.73,0,0,1,319.52,167Z"/><path class="cls-5" d="M311.82,177.38a40.83,40.83,0,0,1-6.63.27,40.83,40.83,0,0,1-6.63-.27,43,43,0,0,1,6.63-.26A43,43,0,0,1,311.82,177.38Z"/><path class="cls-8" d="M276.43,222.34l34.17-4.1L316,196.6l19.12,4.14s-7.56,30-15.35,32.94-46.34-2-46.34-2Z"/><path class="cls-8" d="M275,222.1a40.85,40.85,0,0,0-5.69-1.93c-1.58-.23-3.45.11-3.92.88l-9.22,5.34s-6.82-.64-7.46.88c0,0-4.35-1.23-5.06-.35,0,0-2.17.71-1.82,1.71s8.23,3.75,8.23,3.75l10.8,1.12s4.12-2.23,5.82-2.41a29.55,29.55,0,0,1,4.9.39c-.14,0,6.3.72,6.3.72s1.31-1.4,1.84-5.28,0-4.7,0-4.7Z"/><path class="cls-9" d="M270.47,227s-.29,0-.67-.26-.71-.92-1.31-1.32a3.1,3.1,0,0,0-1.18-.36,2.7,2.7,0,0,1-1.48-.65,2.66,2.66,0,0,1-.79-1.62,2.33,2.33,0,0,1,.57-1.86,3.73,3.73,0,0,1,3.44-.94,6,6,0,0,1,2.58,1.32,10.74,10.74,0,0,1,1.36,1.35c.3.35.44.55.42.58s-.76-.68-2-1.64a6,6,0,0,0-2.44-1.14,3.3,3.3,0,0,0-3,.83,2.07,2.07,0,0,0,.16,2.77c.66.69,1.79.5,2.53,1a11.21,11.21,0,0,1,1.25,1.48C270.23,226.93,270.48,227,270.47,227Z"/><path class="cls-9" d="M264.77,225.24c0,.09-.52.06-1.25.39a20.36,20.36,0,0,1-2.95,1.4,8.5,8.5,0,0,1-3.29-.26c-.8-.15-1.31-.12-1.32-.19s.51-.24,1.36-.18a11.21,11.21,0,0,0,3.13.12c1.14-.3,2.1-1,2.94-1.24S264.79,225.19,264.77,225.24Z"/><path class="cls-9" d="M265,229.54s-.2.19-.62.41a9.8,9.8,0,0,1-1.89.72,18.33,18.33,0,0,1-6.64.39c-1.29-.16-2.51-.36-3.62-.52a11.91,11.91,0,0,1-2.94-.66,1.82,1.82,0,0,1-.88-.85,1.58,1.58,0,0,1-.14-.92c.12-.52.45-.64.44-.61s-.2.2-.23.64a1.44,1.44,0,0,0,1,1.41,13,13,0,0,0,2.85.51l3.6.48a21.24,21.24,0,0,0,6.5-.22C264,230,265,229.46,265,229.54Z"/><path class="cls-9" d="M316.27,227a40.33,40.33,0,0,0-2.22-4.27,40.7,40.7,0,0,0-3.14-3.65,11.13,11.13,0,0,1,5.36,7.92Z"/></g><g id="Character_1" data-name="Character 1"><polygon class="cls-8" points="61.45 345.07 60.14 411.82 76.31 413.56 87.42 345.59 78.69 334.61 61.45 345.07"/><path class="cls-7" d="M78.29,410.26v1.09s18.4,7.63,18.55,11.14l-36.69-.61V409.66A22.66,22.66,0,0,0,78.29,410.26Z"/><path class="cls-4" d="M60.14,421.88l.17-2.93,35.1,1.66s1.63.74,1.42,1.88Z"/><path class="cls-4" d="M54.76,141.11c-.26-3.08-2.11-6.19-5-7.12l-3.38,1.94a8.14,8.14,0,0,0-4.08,9.9,9.63,9.63,0,0,0-3.09,13.24c-2.2,1-3.14,3.7-3.1,6.12s.81,4.77,1,7.18c.17,1.86,0,3.75.34,5.59a5.7,5.7,0,0,0,3.07,4.41,5,5,0,0,0,5.33-1.53,10.25,10.25,0,0,0,2.24-5.35c.91-5.59-.27-11.43,1.14-16.91.76-3,2.27-5.73,3.52-8.54S55,144.18,54.76,141.11Z"/><path class="cls-4" d="M53.14,140.71a10.79,10.79,0,0,1-9-16.6,2.8,2.8,0,0,1,1.23-1.18c1.14-.45,2.32.47,3.2,1.33l6.33,6.16"/><path class="cls-4" d="M53.31,132.81c-4.75-2.25-8.48-7.58-9.87-12.65s.21-15.34,1.58-20.41c1.67-6.18,4.23,1.77,6.34,2.42a4.1,4.1,0,0,1,2.5,2.82,12.14,12.14,0,0,1,.29,3.9l-.84,23.92"/><path class="cls-4" d="M65.46,82.42c8-4.27,14.32-1.74,17.42.68s5,6.12,6.11,9.89,1.64,7.69,2.56,11.52a46,46,0,0,1,1.22,6.69c.46,3.28.31,9.12-1.37,12a19.52,19.52,0,0,1-6,6.93c-1,.63-2.09,1.28-3.18.94a3.89,3.89,0,0,1-1.81-1.65A153.84,153.84,0,0,1,60.33,89.23"/><path class="cls-8" d="M56.62,91.6l13.76-5.54,3.6.4c8.11,0,13.74,8.9,13.83,15.46.09,7.3-.08,16.2-1.22,21.59-2.28,10.81-10.71,11.78-10.71,11.78s.1,3,.19,6.59A11.45,11.45,0,0,1,64.39,153.6h0a11.47,11.47,0,0,1-11.23-11.41L53,95.32A3.85,3.85,0,0,1,56.62,91.6Z"/><path class="cls-4" d="M84.29,109.15a1.39,1.39,0,0,1-1.42,1.34,1.33,1.33,0,0,1-1.37-1.33,1.4,1.4,0,0,1,1.41-1.35A1.34,1.34,0,0,1,84.29,109.15Z"/><path class="cls-4" d="M84.93,105.65c-.18.17-1.2-.66-2.71-.74s-2.64.63-2.8.44.12-.41.62-.74a3.87,3.87,0,0,1,2.25-.57,3.68,3.68,0,0,1,2.14.81C84.88,105.23,85,105.57,84.93,105.65Z"/><path class="cls-4" d="M75.74,117.43a9.81,9.81,0,0,1,2.46-.32c.39,0,.76-.08.84-.34a2,2,0,0,0-.2-1.15c-.32-1-.65-1.94-1-3-1.37-4.25-2.34-7.73-2.17-7.79s1.42,3.35,2.79,7.6l.94,3a2.23,2.23,0,0,1,.12,1.52.94.94,0,0,1-.66.53,2.21,2.21,0,0,1-.65.06A9.37,9.37,0,0,1,75.74,117.43Z"/><path class="cls-9" d="M75.88,135.29a27.76,27.76,0,0,1-14.41-4.62S65,138.42,76,138Z"/><path class="cls-9" d="M74.78,120.69a2.76,2.76,0,0,0-2.43-1.29,2.21,2.21,0,0,0-1.77.85,1.93,1.93,0,0,0-.11,2,2,2,0,0,0,2.06.81,5,5,0,0,0,2-1.09,1.38,1.38,0,0,0,.44-.46C75.07,121.36,74.91,120.87,74.78,120.69Z"/><path class="cls-4" d="M71.26,118.25c.24,0,.16,1.63,1.5,2.86s3.09,1.14,3.09,1.37-.4.3-1.14.28a4.08,4.08,0,0,1-2.58-1.05A3.52,3.52,0,0,1,71,119.32C70.94,118.63,71.14,118.23,71.26,118.25Z"/><path class="cls-4" d="M84.71,101.44c-.28.33-1.3-.08-2.54-.16s-2.32.12-2.54-.25c-.1-.18.08-.52.56-.82a3.71,3.71,0,0,1,4.1.34C84.71,100.92,84.84,101.28,84.71,101.44Z"/><path class="cls-4" d="M67.66,109.06A1.4,1.4,0,0,0,69,110.49a1.34,1.34,0,0,0,1.46-1.25,1.4,1.4,0,0,0-1.33-1.43A1.35,1.35,0,0,0,67.66,109.06Z"/><path class="cls-4" d="M64.84,105.47c.18.19,1.25-.58,2.75-.56s2.61.79,2.77.61-.09-.42-.57-.77a3.81,3.81,0,0,0-2.21-.72,3.72,3.72,0,0,0-2.19.68C64.92,105.06,64.76,105.39,64.84,105.47Z"/><path class="cls-4" d="M65.5,100.69c.26.35,1.3,0,2.55,0s2.31.26,2.55-.1c.11-.17,0-.52-.51-.85A3.56,3.56,0,0,0,68,99.17a3.46,3.46,0,0,0-2,.66C65.54,100.18,65.39,100.53,65.5,100.69Z"/><path class="cls-4" d="M68.79,84.9C65.31,83.49,60,84,57,86.24a15.4,15.4,0,0,0-5.54,9.52c-.68,3.69.23,9.17,1.21,12.8,5.64-7.27,11.45-15.65,16.89-23.07Z"/><path class="cls-4" d="M71.46,81.59c19.12-2.69,17.35,26.22,17.35,26.22h0C86.9,97.16,72.07,86,72.07,86l-3-.51Z"/><path class="cls-8" d="M54.18,113.75c0-.81-.81-2.77-1.6-2.94-2.13-.44-6-.46-6.31,5-.42,7.43,7.13,6.32,7.16,6.11S54,116.56,54.18,113.75Z"/><path class="cls-9" d="M52.3,119s-.13.09-.35.17a1.26,1.26,0,0,1-1,0,3.21,3.21,0,0,1-1.32-3,4.26,4.26,0,0,1,.46-1.83,1.48,1.48,0,0,1,1-.94.67.67,0,0,1,.75.39c.09.22,0,.36.07.38s.17-.12.12-.43a.82.82,0,0,0-.26-.48,1,1,0,0,0-.71-.23,1.85,1.85,0,0,0-1.42,1.08,4.45,4.45,0,0,0-.56,2c0,1.5.65,3,1.7,3.32a1.39,1.39,0,0,0,1.2-.13C52.28,119.13,52.33,119,52.3,119Z"/><path class="cls-4" d="M45.43,96A27,27,0,0,1,55.66,83.58a18.31,18.31,0,0,1,8-3.39,9.2,9.2,0,0,1,8,2.68l.54.55c-3.29,7.29-5.6,13.45-9.83,20.24-1.56,2.49-2.23,11-2.6,13.89-1.28,10-6.73,14.21-6.73,14.21C41.21,131.77,43.53,101.06,45.43,96Z"/><path class="cls-6" d="M51.19,130.59a3.34,3.34,0,0,1-1.46-.47,10,10,0,0,1-4.91-5.39,3.3,3.3,0,0,1-.33-1.5,18.53,18.53,0,0,0,2.66,4.31A19.11,19.11,0,0,0,51.19,130.59Z"/><path class="cls-6" d="M49.78,140.27a4.54,4.54,0,0,1-3.08-1.13,4.55,4.55,0,0,1-1.94-2.64A31,31,0,0,0,47,138.72,28.65,28.65,0,0,0,49.78,140.27Z"/><path class="cls-6" d="M44.82,149.4c-.12.08-.8-.67-1.52-1.68s-1.22-1.89-1.1-2,.8.67,1.52,1.68S44.94,149.32,44.82,149.4Z"/><path class="cls-6" d="M41,160.66c-.11.09-.64-.33-1.18-.95s-.89-1.19-.78-1.29.64.33,1.18,1S41.1,160.56,41,160.66Z"/><path class="cls-6" d="M43.26,112.8a8.64,8.64,0,0,1,1.4-.82c.47-.25,1-.55,1.66-1s1.37-.79,2.14-1.33a52.38,52.38,0,0,0,5.24-3.93,56.23,56.23,0,0,0,5.66-5.68,56,56,0,0,0,4.7-6.49,50.19,50.19,0,0,0,3-5.8c.41-.84.7-1.64,1-2.32s.5-1.29.67-1.79a10.78,10.78,0,0,1,.58-1.52,8.57,8.57,0,0,1-.39,1.59c-.14.5-.32,1.12-.59,1.82s-.52,1.51-.91,2.37a47.21,47.21,0,0,1-3,5.9,52.65,52.65,0,0,1-4.71,6.58,53.06,53.06,0,0,1-5.75,5.7A46.53,46.53,0,0,1,48.66,110c-.79.52-1.55.91-2.2,1.28s-1.22.65-1.7.87A11.39,11.39,0,0,1,43.26,112.8Z"/><path class="cls-6" d="M61.65,103.89s-.17.27-.55.71-1,1-1.69,1.74a36.76,36.76,0,0,1-6.42,4.8,36.36,36.36,0,0,1-7.3,3.3c-1,.31-1.78.53-2.35.65a2.63,2.63,0,0,1-.88.13c0-.08,1.2-.42,3.11-1.13a45.41,45.41,0,0,0,7.16-3.39,44.76,44.76,0,0,0,6.43-4.64C60.7,104.73,61.59,103.83,61.65,103.89Z"/><path class="cls-6" d="M89.4,113.38a14.37,14.37,0,0,1,.3-1.62,27.21,27.21,0,0,0,.5-4.47A25.95,25.95,0,0,0,76,83.16a27.94,27.94,0,0,0-4.13-1.75,13.49,13.49,0,0,1-1.58-.52,1.26,1.26,0,0,1,.43,0c.28.07.69.13,1.2.28a23.45,23.45,0,0,1,4.25,1.61,25.53,25.53,0,0,1,14.39,24.48,23.43,23.43,0,0,1-.67,4.49,12.17,12.17,0,0,1-.34,1.18C89.47,113.25,89.42,113.39,89.4,113.38Z"/><path class="cls-9" d="M178,181a2.41,2.41,0,0,0-.34,2.33,3.86,3.86,0,0,0,1.49,1.51,13.28,13.28,0,0,0,2.46-3.52"/><path class="cls-9" d="M173.67,179.72a2.42,2.42,0,0,0-.9,2.17,3.8,3.8,0,0,0,1.07,1.83,13.39,13.39,0,0,0,3.25-2.8"/><path class="cls-8" d="M75.06,146.74s32.89,25.89,38.81,26.73,33.68-2.51,45.06-2.87l1.62,9.56s-31.44,10.67-42.87,11.09-18-2.66-18-2.66L78.32,166.7Z"/><path class="cls-8" d="M158.21,170.7s14.68-2.09,17-.95,8.84,6.69,8.84,6.69,2.18,6.15.81,6.44-2.8-2-2.8-2l-1.86-3.42-8.2-2-13.62,1.21Z"/><path class="cls-8" d="M160.55,180.16c.21.25,5.45,2.79,8.12,2.72s5.73-2.16,8-1.84,7.07.69,7.65-.14a1.81,1.81,0,0,0,0-2.52c-.79-.74-4.64-1.47-7.42-2.22a11,11,0,0,1-4.12-1.9l-16.17,1.79-.91,5Z"/><path class="cls-9" d="M167.54,174.1a2.73,2.73,0,0,1,.85-.06,13.32,13.32,0,0,1,2.29.27,66.21,66.21,0,0,1,7.22,2.29,23,23,0,0,0,4,1,3.34,3.34,0,0,1,1.78.69,1.88,1.88,0,0,1,.6,1.6,1.67,1.67,0,0,1-.67,1.22,1.87,1.87,0,0,1-1,.38,1.1,1.1,0,0,1-.84-.2,5.09,5.09,0,0,0,.81,0,1.53,1.53,0,0,0,1.3-1.42,1.49,1.49,0,0,0-.51-1.24,3,3,0,0,0-1.57-.55,21.41,21.41,0,0,1-4.09-.92c-2.82-.95-5.27-2-7.14-2.43S167.54,174.2,167.54,174.1Z"/><path class="cls-9" d="M178.12,177.14a4.56,4.56,0,0,1-2.37-1.19c-1.17-.92-1.83-1.95-1.72-2s.92.74,2,1.62S178.19,177,178.12,177.14Z"/><path class="cls-8" d="M46.72,342.88,16.91,356.15l3.58,15.91S58,360.89,70.28,358.41s32.13-5.65,37.74-17.54Z"/><path class="cls-7" d="M23.35,372.35l-1,.29s-2.39,19.54-5.69,20.61l-9.15-35.1,11.64-3.24A22.4,22.4,0,0,0,23.35,372.35Z"/><path class="cls-4" d="M7.47,358.15l2.84-.61L18,391.4s-.27,1.74-1.42,1.85Z"/><path class="cls-9" d="M107.87,341.33a4.92,4.92,0,0,1-.32.84,9.41,9.41,0,0,1-1.43,2.13,32.88,32.88,0,0,1-7.35,5.86,34.38,34.38,0,0,1-5.9,2.77,66,66,0,0,1-7.19,2c-5.08,1.28-10.66,2.74-16.51,4.29l-30,7.91-9.1,2.32-2.49.59c-.57.13-.87.19-.87.18a5.14,5.14,0,0,1,.85-.28l2.46-.69,9.06-2.47c7.65-2.09,18.23-5,29.93-8.07,5.86-1.54,11.44-3,16.53-4.25a67.09,67.09,0,0,0,7.16-2,35.07,35.07,0,0,0,5.86-2.67,34.55,34.55,0,0,0,7.39-5.69A11.32,11.32,0,0,0,107.87,341.33Z"/><path class="cls-4" d="M60.52,213.49l.67,5.87s-10.32,19.51-10.32,30-4.76,93.81-4.76,93.81,56,3.19,61.91-2.28l5.92-5.46L134,330l-31.25-114v-6.11Z"/><path class="cls-6" d="M98.83,241.73a1.16,1.16,0,0,1,0,.23l.11.69c.1.64.22,1.52.38,2.63.33,2.33.79,5.62,1.35,9.68,1.17,8.17,2.91,19.43,5.15,31.82s4.58,23.55,6.35,31.61c.9,4,1.62,7.24,2.13,9.54l.57,2.59c.06.28.1.5.14.68a.74.74,0,0,1,0,.24.74.74,0,0,1-.08-.22l-.19-.67c-.16-.63-.38-1.49-.66-2.57-.58-2.24-1.36-5.49-2.3-9.51-1.86-8-4.25-19.2-6.5-31.6s-3.93-23.68-5-31.86c-.54-4.1-.94-7.41-1.19-9.71-.12-1.11-.21-2-.28-2.64,0-.28,0-.5-.06-.69A.73.73,0,0,1,98.83,241.73Z"/><path class="cls-6" d="M58.61,252.17a3.06,3.06,0,0,1,.23.66q.22.73.57,1.92c.51,1.72,1.21,4.12,2.07,7.05,1.76,6,4.32,14.14,7.45,23.08s6.24,16.94,8.57,22.69c1.16,2.83,2.1,5.14,2.78,6.81l.75,1.85a2.82,2.82,0,0,1,.23.66,3.78,3.78,0,0,1-.32-.62c-.22-.46-.5-1.06-.84-1.81-.73-1.58-1.73-3.89-2.94-6.75C74.74,302,71.57,294,68.44,285.05s-5.64-17.16-7.31-23.14c-.84-3-1.49-5.42-1.91-7.11l-.48-1.94A3.46,3.46,0,0,1,58.61,252.17Z"/><path class="cls-6" d="M104.63,218.68a12.66,12.66,0,0,1-1.68.2c-1.09.1-2.66.22-4.6.33-3.88.24-9.26.45-15.2.47s-11.31-.14-15.2-.34c-1.94-.1-3.52-.2-4.6-.3a10.27,10.27,0,0,1-1.68-.19,11,11,0,0,1,1.69,0L68,219c3.89.11,9.26.22,15.19.19s11.3-.17,15.18-.31l4.6-.17A9.33,9.33,0,0,1,104.63,218.68Z"/><path class="cls-7" d="M76,142.55c-.27-.64,19.87,15.42,22.4,23.24s3,30.38,3,30.38l1.42,14.48-40.2,2.84-1.07-2.84-3-8.07-4.14-12.19s-9.91-15.39-11.88-22c-2.44-8.23,1.61-16.66,1.61-16.66l9.09-10.26Z"/><path class="cls-7" d="M53.16,142.19s-2.22-4.14-.85-5.94c1.09-1.43,20.45.37,24.4,1.2,2.31.49,0,5.67,0,5.67Z"/><g class="cls-12"><path d="M64.76,161.69c1.68,4.36-.7,17.91-1.07,21.14a53.37,53.37,0,0,1-2.22,9.47c-.43,1.44-.85,3.11,0,4.38,1.32,2,4.72,1.46,6.36,3.25a15.89,15.89,0,0,1-9.89,1.15,2.62,2.62,0,0,1-1.57-.76,2.81,2.81,0,0,1-.48-1.26,37.47,37.47,0,0,1-.47-14.42c.91-4.75,5.45-16.16,9.26-19.13"/></g><path class="cls-4" d="M65.46,167.67a12.76,12.76,0,0,1-1.93,4.65,12.9,12.9,0,0,1-3.19,3.88c-.12-.1,1.34-1.8,2.74-4.15S65.32,167.62,65.46,167.67Z"/><path class="cls-4" d="M76.71,142.62a3.26,3.26,0,0,1-.92.26c-.6.13-1.48.28-2.56.43a48.12,48.12,0,0,1-17-.86c-1.07-.25-1.92-.49-2.5-.69a3.59,3.59,0,0,1-.89-.34c0-.08,1.33.26,3.46.67a61.1,61.1,0,0,0,8.43,1,60.46,60.46,0,0,0,8.49-.18C75.35,142.74,76.69,142.54,76.71,142.62Z"/><path class="cls-4" d="M90.87,181.49c-.09,0,.26-1.11.53-2.9A21.7,21.7,0,0,0,89,164.94c-.87-1.59-1.57-2.48-1.5-2.54s.22.18.56.58a14.06,14.06,0,0,1,1.26,1.77,19.79,19.79,0,0,1,2.52,6.73,19.48,19.48,0,0,1-.06,7.17,12.84,12.84,0,0,1-.57,2.11A2.77,2.77,0,0,1,90.87,181.49Z"/><g class="cls-12"><path d="M64.23,143.31a69.52,69.52,0,0,1-10-1.42A26.44,26.44,0,0,0,69.63,145a8.11,8.11,0,0,0,5.25-2.26C71.92,143.87,67.39,143.58,64.23,143.31Z"/></g><g class="cls-12"><path d="M86.92,186.09a17.73,17.73,0,0,0,4.69-14.38,20.08,20.08,0,0,1,.74,5.23,8.82,8.82,0,0,1-1.4,5.78c-1.23,1.68-2,2.71-4,3.37"/></g><path class="cls-8" d="M58.9,152.89a10,10,0,0,0-14.28,1.34c-.15.19-.29.38-.42.58-2.08,3.13-7.84,51.88-5.55,57.72S44.29,218,44.29,218s15.08-.17,25.92-2.68,23-6.61,23-6.61l-2-11.81s-26.56,3.52-33.86,2.69h0l2.79-23.74s6.34-7.73,4.52-14.83C63.74,157.62,61.26,154.86,58.9,152.89Z"/><path class="cls-8" d="M99.52,189.61l6-4,4.29-3.62a4.87,4.87,0,0,1-.8,3.81c-1.34,2-3.57,5-3.57,5Z"/><path class="cls-9" d="M108.42,187.19s.34-.46.75-1.32a5.78,5.78,0,0,0,.39-3.83l.36.11-4.27,3.65h0l-.32.22-3.76,2.5c-1.16.77-2.21,1.45-3.14,1.94a22.94,22.94,0,0,1-3,1.57,20.69,20.69,0,0,1,2.83-1.88c.9-.53,1.93-1.24,3.07-2L105,185.6l.32-.22,0,0,4.31-3.59.28-.24.08.35a5.73,5.73,0,0,1-.59,4.07,4.69,4.69,0,0,1-.67.93C108.54,187.11,108.44,187.21,108.42,187.19Z"/><path class="cls-4" d="M97.37,199.67c.2-.4,15.88-17.88,19.75-22.18a1.66,1.66,0,0,1,2-.37h0a1.66,1.66,0,0,1,.49,2.61L99.52,202.06Z"/><path class="cls-8" d="M114.06,192c.64-.88-.32-2.58-1.2-3s-4.44,1.49-4.44,1.49l-1.29.11s-6.88-1.39-7.11-1.28a22.79,22.79,0,0,0-5,3,9.25,9.25,0,0,0-1.81,2.13c-.53.8-1.81,2.13-4.81,2.85l2.92,11.86s6.4-1.5,6.89-1.51,5.84-.43,6.56-.55a17.8,17.8,0,0,0,6-2.77c2.3-1.71,1.23-3.16,1.23-3.16,2.37-1.61.52-3.21.52-3.21l.66-1.14c1-1.81-1-2.81-1-2.81A17.35,17.35,0,0,0,114.06,192Z"/><path class="cls-9" d="M109.3,195.72c0-.13.71-.47,1.56-1s1.5-1,1.6-.94-.44.79-1.35,1.35S109.33,195.84,109.3,195.72Z"/><path class="cls-9" d="M111.31,198.94c-.08-.1.16-.44.55-.75s.76-.5.85-.39-.16.44-.55.76S111.39,199.05,111.31,198.94Z"/><path class="cls-9" d="M110.6,201.57c0-.13.39-.27.86-.45s.86-.34.94-.23-.24.47-.77.67S110.61,201.7,110.6,201.57Z"/><path class="cls-9" d="M108.42,190.48a13.34,13.34,0,0,1-3.63.51,24.46,24.46,0,0,1-3.64.2c0-.16,1.58-.58,3.6-.72A12.71,12.71,0,0,1,108.42,190.48Z"/><path class="cls-9" d="M57.64,199.33A18,18,0,0,1,55,202.75a17.69,17.69,0,0,1-3.06,3.08,18.3,18.3,0,0,1,2.67-3.42A17.45,17.45,0,0,1,57.64,199.33Z"/><path class="cls-4" d="M64.37,167.09a13.67,13.67,0,0,1,.17-1.48,12.82,12.82,0,0,0-.2-4,14.66,14.66,0,0,0-8.15-9.84,9.54,9.54,0,0,0-7-.46,8,8,0,0,0-4.58,3.5,13.26,13.26,0,0,0-1.43,3.75,10.34,10.34,0,0,1-.35,1.45,1.64,1.64,0,0,1,0-.39,10.13,10.13,0,0,1,.15-1.1,11.78,11.78,0,0,1,1.31-3.9,7.47,7.47,0,0,1,1.84-2.2,9,9,0,0,1,2.9-1.56,9.92,9.92,0,0,1,7.4.43,14.09,14.09,0,0,1,5.78,4.7,13.72,13.72,0,0,1,2.52,5.54,12,12,0,0,1,0,4.11,9.68,9.68,0,0,1-.24,1.09C64.43,167,64.39,167.1,64.37,167.09Z"/></g><g id="Screen"><path class="cls-3" d="M138.55,119.83h-41a3,3,0,0,0-3,3v39.73a3,3,0,0,0,3,3h15.09l5.9,8.36,5.12-8.36h14.89a3,3,0,0,0,3-3V122.88A3,3,0,0,0,138.55,119.83Z"/><path class="cls-4" d="M138.55,119.83a2.38,2.38,0,0,1,1.2.2,3.12,3.12,0,0,1,1.93,2.82c0,3.11,0,7.62.07,13.28s0,12.54.06,20.31q0,2.92,0,6a3.32,3.32,0,0,1-1.42,2.87,3.22,3.22,0,0,1-1.59.57c-.57,0-1.08,0-1.63,0l-13.52,0,.21-.12-5.11,8.36-.21.33-.22-.31c-1.87-2.66-3.87-5.48-5.9-8.36l.21.11H102.06c-1.65,0-3.24,0-4.91,0a3.31,3.31,0,0,1-2.22-1.27,3.55,3.55,0,0,1-.69-2.41V152.8c0-6.17,0-12.13,0-17.8,0-2.84,0-5.6,0-8.29,0-1.35,0-2.67,0-4a3.28,3.28,0,0,1,2.42-3,7.44,7.44,0,0,1,1.92-.11h5.43l6.73,0,20.32.08,5.52,0,1.44,0,.49,0-.49,0-1.44,0-5.52.05-20.32.08-6.73,0H98.62a7.63,7.63,0,0,0-1.81.11,2.81,2.81,0,0,0-2.08,2.6v4q0,4,0,8.29c0,5.67,0,11.63,0,17.8,0,3.09,0,6.23,0,9.42a3,3,0,0,0,.58,2.09,2.75,2.75,0,0,0,1.87,1.07c1.55.05,3.22,0,4.85,0h10.72l.07.11c2,2.88,4,5.71,5.9,8.36l-.43,0c1.77-2.89,3.51-5.71,5.13-8.36l.07-.11h13.66c.53,0,1.1,0,1.59,0a2.83,2.83,0,0,0,1.38-.48,2.88,2.88,0,0,0,1.23-2.5q0-3.08,0-6c0-7.77,0-14.62.05-20.31s.06-10.17.07-13.28a3,3,0,0,0-.64-1.85,3.17,3.17,0,0,0-1.15-.89A3.75,3.75,0,0,0,138.55,119.83Z"/><path class="cls-4" d="M124.91,148.82h-.28l-.8,0-3,0-10,0h-.08l0-.08c-.07-.53-.15-1.09-.23-1.66l-1.66-12,.06.05-2.67,0h-.71a1.1,1.1,0,0,1-.24,0l.24,0h.71l2.67,0h0v.06c.4,2.82,1,7.15,1.73,12,.08.57.16,1.13.23,1.66l-.09-.08,10,0,3,0,.8,0A.84.84,0,0,1,124.91,148.82Z"/><path class="cls-4" d="M110.73,149.11a.17.17,0,0,1-.15-.15L108.7,135.4l-3.17,0c-.29,0-.42,0-.42-.19s.14-.2.42-.21l.71,0,2.72,0a.18.18,0,0,1,.18.16l1.94,13.48,13.56.06c.33,0,.45,0,.46.19h0c0,.18-.13.18-.46.2h-.81l-3,0-10.09,0Z"/><path class="cls-4" d="M110.43,145.92h1.08l3,0,10.39-.05-.09.07c.31-1.74.64-3.64,1-5.59.17-1,.35-2,.51-2.94l.1.11-12.25,0-3.62,0h-1l1,0,3.62,0,12.25,0h.11l0,.11c-.17.94-.34,1.93-.52,2.94-.34,2-.67,3.85-1,5.6V146h-.08l-10.39,0-3,0h-1.08Z"/><path class="cls-4" d="M110.43,146.1c-.08,0-.19,0-.19-.18s.19-.19.25-.19l1,0,3,0,10.16-.05,1.4-8-16.78-.06c-.08,0-.26,0-.26-.2s.18-.18.26-.18l1.23,0,6.19,0,9.8,0a.2.2,0,0,1,.14.06.2.2,0,0,1,0,.15L125.17,146a.19.19,0,0,1-.18.15l-14.5-.06Z"/><path class="cls-4" d="M114.36,152.65a2.82,2.82,0,0,1-.08-.33,1.32,1.32,0,0,0-.52-.73,1.33,1.33,0,0,0-2.12,1.07,1.34,1.34,0,0,0,2.13,1.06,1.42,1.42,0,0,0,.51-.73c.06-.21.06-.34.08-.34a.61.61,0,0,1,0,.35,1.35,1.35,0,0,1-.5.82,1.46,1.46,0,0,1-1.4.24,1.49,1.49,0,1,1,1.4-2.58,1.37,1.37,0,0,1,.5.82A.59.59,0,0,1,114.36,152.65Z"/><path class="cls-4" d="M112.71,154.31a1.67,1.67,0,0,1-.32-3.23,1.63,1.63,0,0,1,1.57.26,1.59,1.59,0,0,1,.57.93,1.13,1.13,0,0,1,0,.38,1.21,1.21,0,0,1,0,.39,1.61,1.61,0,0,1-.57.93A1.66,1.66,0,0,1,112.71,154.31Zm.42-2.79a1.22,1.22,0,0,0-.56.06,1.17,1.17,0,0,0-.75,1.07,1.16,1.16,0,0,0,1.84.92,1.21,1.21,0,0,0,.45-.63,2.16,2.16,0,0,0,0-.25s0,0,0,0v0a2.08,2.08,0,0,0,0-.24,1.25,1.25,0,0,0-.45-.64A1.23,1.23,0,0,0,113.13,151.52Z"/><path class="cls-4" d="M123.42,152.64s0-.13-.08-.34a1.45,1.45,0,0,0-.52-.73,1.36,1.36,0,0,0-1.26-.17,1.32,1.32,0,0,0,0,2.48,1.36,1.36,0,0,0,1.26-.17,1.4,1.4,0,0,0,.51-.74,2.82,2.82,0,0,1,.08-.33.59.59,0,0,1,0,.35,1.37,1.37,0,0,1-.5.82,1.46,1.46,0,0,1-1.4.24,1.51,1.51,0,0,1-1-1.41,1.49,1.49,0,0,1,1-1.4,1.46,1.46,0,0,1,1.4.23,1.32,1.32,0,0,1,.51.82A.61.61,0,0,1,123.42,152.64Z"/><path class="cls-4" d="M121.77,154.3a1.67,1.67,0,0,1-.32-.08,1.69,1.69,0,0,1-1.12-1.58,1.65,1.65,0,0,1,1.12-1.57,1.61,1.61,0,0,1,1.57.26,1.57,1.57,0,0,1,.57.92,1.21,1.21,0,0,1,0,.39,1.13,1.13,0,0,1,0,.38,1.59,1.59,0,0,1-.57.93A1.66,1.66,0,0,1,121.77,154.3Zm.42-2.79a1.1,1.1,0,0,0-.56.06,1.15,1.15,0,1,0,1.09,2,1.19,1.19,0,0,0,.45-.64,2.08,2.08,0,0,0,0-.24s0,0,0,0v0a1.73,1.73,0,0,0,0-.24,1.25,1.25,0,0,0-.45-.64A1.12,1.12,0,0,0,122.19,151.51Z"/><path class="cls-7" d="M131.56,138.81a4.72,4.72,0,1,1-4.72-4.72A4.72,4.72,0,0,1,131.56,138.81Z"/><polygon class="cls-5" points="124.14 138.91 124.85 138.21 126.21 139.42 128.89 136.85 129.54 137.55 126.11 140.78 124.14 138.91"/></g></g></svg>