<svg id="img1" xmlns="http://www.w3.org/2000/svg" width="398.5" height="314.234" viewBox="0 0 398.5 314.234">
  <g id="Capa_2" data-name="Capa 2" transform="translate(0 0)">
    <g id="Layer_1" data-name="Layer 1" transform="translate(0 0)">
      <path id="Trazado_2" data-name="Trazado 2" d="M539.364,739.44H452.4a5.111,5.111,0,0,0-5.109,5.111V780.78a5.109,5.109,0,0,0,5.109,5.109h9.032c-.525,3.99-1.211,9.711-.834,9.711s4.783-6.02,7.432-9.711h71.336a5.109,5.109,0,0,0,5.111-5.109V744.551A5.111,5.111,0,0,0,539.364,739.44Z" transform="translate(-351.402 -580.922)" fill="#daeef7" opacity="0.3"/>
      <path id="Trazado_3" data-name="Trazado 3" d="M558.756,694.52H471.789a5.109,5.109,0,0,0-5.109,5.109v36.229a5.109,5.109,0,0,0,5.109,5.109h9.032c-.525,3.99-1.211,9.711-.834,9.711s4.783-6.02,7.432-9.711h71.338a5.109,5.109,0,0,0,5.1-5.1V699.633A5.109,5.109,0,0,0,558.756,694.52Z" transform="translate(-366.635 -545.632)" fill="#feb546"/>
      <circle id="Elipse_2" data-name="Elipse 2" cx="12.809" cy="12.809" r="12.809" transform="translate(98.768 172.243) rotate(-45)" fill="#fff"/>
      <rect id="Rectángulo_9" data-name="Rectángulo 9" width="3.76" height="3.756" transform="translate(115.147 178.695)" fill="#ffc0bb"/>
      <path id="Trazado_4" data-name="Trazado 4" d="M540.892,835.813V833.56H537.13v1.917A5.529,5.529,0,0,0,540.892,835.813Z" transform="translate(-421.983 -654.865)" fill="#f99893"/>
      <path id="Trazado_5" data-name="Trazado 5" d="M521.229,777.856a1.4,1.4,0,0,0-1.261.052,6.7,6.7,0,1,0-13.394,0,1.4,1.4,0,0,0-1.26-.051,1.945,1.945,0,0,0,1.683,3.4,1.214,1.214,0,0,0,.281-.193,6.047,6.047,0,0,0,12.005,0,1.181,1.181,0,0,0,.283.193,1.937,1.937,0,0,0,1.664-3.4Z" transform="translate(-396.39 -605.882)" fill="#ffc0bb"/>
      <path id="Trazado_6" data-name="Trazado 6" d="M512.125,757.672s1.887-1.6,6.178-1.34,5.106,2.5,5.359,5.694l-.251,3.805a16.735,16.735,0,0,1-2.573-4.322s-2.4,2.695-3.449,2.375.4-2.26.4-2.26-4.9,4.21-7.775,4.206c0,0-1.524-4.931.617-6.738,0,0-1.614.077-1.7-.24s.77-.791,2.32-.613c0,0-1.1-2.159-.487-2.384S512.125,757.672,512.125,757.672Z" transform="translate(-399.822 -593.806)" fill="#07085b"/>
      <path id="Trazado_7" data-name="Trazado 7" d="M541.3,822.63a2.353,2.353,0,0,1-4.2.129Z" transform="translate(-421.959 -646.279)" fill="#fff"/>
      <rect id="Rectángulo_10" data-name="Rectángulo 10" width="50.978" height="2.225" rx="1.113" transform="translate(134.098 159.328)" fill="#fff"/>
      <rect id="Rectángulo_11" data-name="Rectángulo 11" width="12.039" height="2.225" rx="1.113" transform="translate(134.098 165.202)" fill="#fff"/>
      <rect id="Rectángulo_12" data-name="Rectángulo 12" width="34.397" height="2.225" rx="1.113" transform="translate(150.682 165.202)" fill="#fff"/>
      <rect id="Rectángulo_13" data-name="Rectángulo 13" width="26.336" height="2.225" rx="1.113" transform="translate(134.098 171.076)" fill="#fff"/>
      <rect id="Rectángulo_14" data-name="Rectángulo 14" width="20.79" height="2.225" rx="1.113" transform="translate(164.286 171.076)" fill="#fff"/>
      <rect id="Rectángulo_15" data-name="Rectángulo 15" width="50.978" height="2.225" rx="1.113" transform="translate(134.098 176.947)" fill="#fff"/>
      <path id="Trazado_8" data-name="Trazado 8" d="M1093.37,444.253l3.168,19.873,6.7-26.495s-9.383-4.553-9.8-2.9S1093.37,444.253,1093.37,444.253Z" transform="translate(-858.872 -341.252)" fill="#07085b"/>
      <path id="Trazado_9" data-name="Trazado 9" d="M1241.811,679.99l2.9,34.356L1214.39,712.9l3.5-30.424Z" transform="translate(-954.055 -534.217)" fill="#ffc0bb"/>
      <path id="Trazado_10" data-name="Trazado 10" d="M1222.94,696.951l1.664-14.47,23.924-2.48,1,11.9C1244.774,696.633,1236.22,701.549,1222.94,696.951Z" transform="translate(-960.772 -534.225)" fill="#f99893"/>
      <path id="Trazado_11" data-name="Trazado 11" d="M1092.835,554.842c1.824,3.771.857,8.009-2.159,9.467s-6.939-.416-8.761-4.187-.858-8.007,2.159-9.467S1091.012,551.073,1092.835,554.842Z" transform="translate(-849.255 -432.219)" fill="#f99893"/>
      <path id="Trazado_12" data-name="Trazado 12" d="M1114.344,442.26a60.394,60.394,0,0,1-4.18-14.67c-.159-.984-.373-1.955-.607-2.922a32.394,32.394,0,1,1,63.817-9.658,7,7,0,0,1,6.262-.89c3.945,1.471,5.653,6.661,3.816,11.591s-6.528,7.737-10.472,6.266a6.13,6.13,0,0,1-1.5-.823c-.609,15.93-12.8,28.971-28.375,29.7a29.061,29.061,0,0,1-20.2-6.946C1119.377,451.319,1116.05,446.281,1114.344,442.26Z" transform="translate(-870.983 -302.204)" fill="#ffc0bb"/>
      <path id="Trazado_13" data-name="Trazado 13" d="M1216.858,536.44c-.062,1.854-.077,3.666-.174,5.441-.109,1.642-.29,4-1.312,5.252a3.912,3.912,0,0,0-.973,2.4,3.833,3.833,0,0,0,1.415,3,6.249,6.249,0,0,0,5.574,1.087,7.7,7.7,0,0,1-4.558-2.127,2.21,2.21,0,0,1-.054-3.145,6.006,6.006,0,0,0,1.368-3.629,15.3,15.3,0,0,0,0-2.855A19.412,19.412,0,0,0,1216.858,536.44Z" transform="translate(-954.062 -421.441)" fill="#f99893"/>
      <path id="Trazado_14" data-name="Trazado 14" d="M1275.989,537.035a2.828,2.828,0,1,0,2.693-2.956A2.828,2.828,0,0,0,1275.989,537.035Z" transform="translate(-1002.446 -419.583)" fill="#333"/>
      <path id="Trazado_15" data-name="Trazado 15" d="M1163.178,549.747a2.828,2.828,0,1,0,2.693-2.958A2.828,2.828,0,0,0,1163.178,549.747Z" transform="translate(-913.819 -429.568)" fill="#333"/>
      <path id="Trazado_16" data-name="Trazado 16" d="M1219.919,637.18a20.2,20.2,0,0,1-10.341,4.931c-4.022.508-7.574-.718-11-2.828a14.277,14.277,0,0,0,11.088,3.563A16.834,16.834,0,0,0,1219.919,637.18Z" transform="translate(-941.634 -500.584)" fill="#f99893"/>
      <path id="Trazado_17" data-name="Trazado 17" d="M1259.43,505.811c3.985-1.231,6.243-1.3,8.063-1.072,3.975.534,6.217,2.29,7.6,2.9a9.467,9.467,0,0,0-15.66-1.826Z" transform="translate(-989.439 -394.745)" fill="#07085b"/>
      <path id="Trazado_18" data-name="Trazado 18" d="M1146.336,517.044a9.463,9.463,0,0,0-15.006,4.817c1.248-.858,3.093-3.023,6.89-4.32C1139.956,516.982,1142.179,516.609,1146.336,517.044Z" transform="translate(-888.801 -404.576)" fill="#07085b"/>
      <path id="Trazado_19" data-name="Trazado 19" d="M913.143,766.414s-28.531,3.623-35.777,9.51-42.116,92.4-42.116,92.4l28.983,33.964,61.59.454s46.191,24.906,75.175,1.357,14.037-105.516-2.718-123.178-46.644-17.21-46.644-17.21S924.464,782.717,913.143,766.414Z" transform="translate(-656.193 -599.985)" fill="#02ccc0"/>
      <path id="Trazado_20" data-name="Trazado 20" d="M1446.481,977a120.017,120.017,0,0,0-2.09,14.3c-.246,2.4-.351,4.808-.489,7.218-.073,2.414-.129,4.826-.1,7.244a95.076,95.076,0,0,0,1.19,14.455,48.069,48.069,0,0,0,4.2,13.844,71.065,71.065,0,0,1-2.761-14.042c-.534-4.731-.708-9.51-.77-14.284-.1-4.774.019-9.559.169-14.346S1446.226,981.817,1446.481,977Z" transform="translate(-1134.282 -767.555)" fill="#fff"/>
      <path id="Trazado_21" data-name="Trazado 21" d="M970.947,962.24c-1.306,7.014-2.684,14.005-4.088,20.983s-2.913,13.934-4.6,20.831-3.522,13.767-5.765,20.494a100.335,100.335,0,0,1-3.859,9.9,38.075,38.075,0,0,1-5.473,9.083,34.724,34.724,0,0,0,6.292-8.676,82.226,82.226,0,0,0,4.4-9.814c1.286-3.349,2.38-6.759,3.43-10.183,1.005-3.43,1.929-6.892,2.787-10.363.819-3.479,1.6-6.967,2.309-10.468s1.349-7.014,1.91-10.541C969.449,976.44,970.355,969.353,970.947,962.24Z" transform="translate(-744.112 -755.96)" fill="#fff"/>
      <path id="Trazado_22" data-name="Trazado 22" d="M991.231,1302.728c.18-1.434,11.066-3.036,15.066-3.241,3.031-.156,23.125-.828,29.959-1.136l-.5,1.756.1,7.763,1.123,5.145c-6,.38-20.655.954-23.708,1.556-4.073.806-11.147,3.882-11.147,3.882s-2.941-.669.8-2.283a17.947,17.947,0,0,0,6-4.287c.512-.572-.043-1.595-.416-1.5-10.176,2.667-11.225,3.106-11.225,3.106s-11.96-.066-.066-2.755c7.128-1.61,9.683-2.547,10.318-3.346.27-.341-.214-1.5-.643-1.528-6.178-.38-17.264,1.809-14.226.373,2.476-1.17,10.273-2.455,13.306-2.937.187-.03.487-1.16-.341-1.228C999.742,1301.566,991.062,1304.063,991.231,1302.728Z" transform="translate(-778.734 -1020.016)" fill="#ffc0bb"/>
      <path id="Trazado_23" data-name="Trazado 23" d="M1250.971,1239.509c-2.5.6-5.031,1.029-7.54,1.558-5.048.92-10.112,1.715-15.193,2.435-5.085.667-10.176,1.286-15.283,1.775s-10.258.937-15.291,1.218l-.677.039-.15.585a41.848,41.848,0,0,0-.928,5.081,40.576,40.576,0,0,0-.3,5.13,33.316,33.316,0,0,0,.444,5.145,23.747,23.747,0,0,0,1.5,4.952l.058.139.109.073,5.6,3.751c1.863,1.252,3.734,2.5,5.623,3.713q-2.63-2.11-5.3-4.157l-5.2-4.017a22.583,22.583,0,0,1-1.132-4.65,32.821,32.821,0,0,1-.24-4.931,46.452,46.452,0,0,1,.448-4.931,42.39,42.39,0,0,1,.836-4.221c2.414-.079,4.727-.236,7.1-.407,2.573-.191,5.145-.395,7.718-.665,5.128-.53,10.247-1.17,15.341-1.983s10.159-1.816,15.18-3c2.5-.643,5-1.256,7.465-2.032,2.483-.7,4.913-1.567,7.336-2.429C1255.955,1238.283,1253.485,1238.984,1250.971,1239.509Z" transform="translate(-939.299 -972.352)" fill="#fff"/>
      <path id="Trazado_24" data-name="Trazado 24" d="M411.822,1049.91H508.9a7.332,7.332,0,0,1,6.787,4.553l29.721,72.547h53.665a2.718,2.718,0,0,1,2.718,2.716h0a2.718,2.718,0,0,1-2.718,2.718H444.129a7.261,7.261,0,0,1-6.626-4.288L406.259,1058.5a6.1,6.1,0,0,1,5.563-8.594Z" transform="translate(-318.747 -824.835)" fill="#07085b"/>
      <path id="Trazado_25" data-name="Trazado 25" d="M1069.194,312.26s-9.512.307.469-7.735,36.78-17.476,53.956-8.4c0,0,3.43-7.3,8.4-5.559s-3.229,6.766-3.229,6.766,6.341-.2,8.275,2.907c1.43,2.3-2.452,2.4-4.575,2.3,3.61.615,17.448,9.353,10.5,37.256-2.468-.542-16.535-20.94-16.535-20.94s-32.171,17.872-28.99,3.661c0,0-33.327,20.794-28.6,3.617C1068.879,326.125,1055.993,327.071,1069.194,312.26Z" transform="translate(-835.31 -228.062)" fill="#07085b"/>
      <path id="Trazado_26" data-name="Trazado 26" d="M1360.613,398.295a6.09,6.09,0,0,0-5.529,1.338c-2.864,2.275-2.549,10.262-2.549,10.262s-13.666,8.809-12.232-28.505c1.533-39.689,11.407,3.186,11.407,3.186Z" transform="translate(-1052.893 -286.391)" fill="#07085b"/>
      <path id="Trazado_27" data-name="Trazado 27" d="M196.265,355.75H96.66a6.232,6.232,0,0,0-6.23,6.23v41.106a6.23,6.23,0,0,0,6.23,6.23h78.418c3.173,4.427,8.929,12.359,9.432,12.359.474,0-.442-7.49-1.087-12.359h12.837a6.23,6.23,0,0,0,6.23-6.23V361.98A6.232,6.232,0,0,0,196.265,355.75Z" transform="translate(-71.044 -279.486)" fill="#daeef7" opacity="0.3"/>
      <path id="Trazado_28" data-name="Trazado 28" d="M177.075,306H77.47a6.23,6.23,0,0,0-6.23,6.23v41.109a6.23,6.23,0,0,0,6.23,6.23H155.89c3.173,4.429,8.927,12.359,9.433,12.359s-.439-7.49-1.085-12.359h12.835a6.23,6.23,0,0,0,6.234-6.23v-41.1A6.23,6.23,0,0,0,177.075,306Z" transform="translate(-55.968 -240.401)" fill="#ff5b7e"/>
      <circle id="Elipse_3" data-name="Elipse 3" cx="15.617" cy="15.617" r="15.617" transform="matrix(0.922, -0.386, 0.386, 0.922, 16.214, 84.011)" fill="#fff"/>
      <path id="Trazado_29" data-name="Trazado 29" d="M131.82,392.45s-1.548-6.354,2.144-8.734,7.627-2.924,10.32-1.554c3.732,1.9,5.265,7.038,4.073,9.878l-9.891-2.487Z" transform="translate(-103.308 -299.656)" fill="#040744"/>
      <rect id="Rectángulo_16" data-name="Rectángulo 16" width="4.585" height="4.579" transform="translate(34.536 100.255)" fill="#ffc0bb"/>
      <path id="Trazado_30" data-name="Trazado 30" d="M165.686,470.4V467.66H161.1v2.335A6.75,6.75,0,0,0,165.686,470.4Z" transform="translate(-126.564 -367.405)" fill="#f99893"/>
      <path id="Trazado_31" data-name="Trazado 31" d="M141.707,399.775a1.715,1.715,0,0,0-1.537.06,8.166,8.166,0,1,0-16.329,0,1.715,1.715,0,0,0-1.537-.06,2.368,2.368,0,0,0,2.043,4.148,1.5,1.5,0,0,0,.345-.236,7.361,7.361,0,0,0,14.616,0,1.43,1.43,0,0,0,.343.236,2.374,2.374,0,0,0,2.056-4.148Z" transform="translate(-95.355 -307.716)" fill="#ffc0bb"/>
      <path id="Trazado_32" data-name="Trazado 32" d="M166.255,454.32a2.862,2.862,0,0,1-5.115.156Z" transform="translate(-126.596 -356.925)" fill="#fff"/>
      <path id="Trazado_33" data-name="Trazado 33" d="M131.851,394.954s6-1.818,8.626-4.853c0,0-.742,3.657-1.3,4.24.176.118,6-2.712,6.785-5.323s-5.942-3.548-5.942-3.548-2.311.982-2.427,1.042-2.283.311-2.532.858c-.324.72-1.852.785-1.852.785l-.967,2.009-.675,2.114Z" transform="translate(-103.365 -302.835)" fill="#040744"/>
      <path id="Trazado_34" data-name="Trazado 34" d="M109.94,367.613a6.562,6.562,0,0,0,4.444.292c3.5-1.072,4.89-.658,5.359-.394a1.134,1.134,0,0,0,.92.12c.345-.116.667-.429.566-1.216a6.362,6.362,0,0,0-2.714-5.224A15.649,15.649,0,0,0,109.94,367.613Z" transform="translate(-86.372 -283.76)" fill="#040744"/>
      <path id="Trazado_35" data-name="Trazado 35" d="M144.874,383.639h0a.3.3,0,0,1,.073-.429,8.232,8.232,0,0,1,3.9-1.342.3.3,0,0,1,.311.3h0a.3.3,0,0,1-.283.3,7.728,7.728,0,0,0-3.6,1.248A.3.3,0,0,1,144.874,383.639Z" transform="translate(-113.768 -300.005)" fill="#feb546"/>
      <rect id="Rectángulo_17" data-name="Rectángulo 17" width="20.921" height="2.714" rx="1.357" transform="translate(55.313 78.931)" fill="#fff"/>
      <rect id="Rectángulo_18" data-name="Rectángulo 18" width="14.132" height="2.714" rx="1.357" transform="translate(55.313 86.091)" fill="#fff"/>
      <rect id="Rectángulo_19" data-name="Rectángulo 19" width="17.39" height="2.714" rx="1.357" transform="translate(71.882 86.091)" fill="#fff"/>
      <rect id="Rectángulo_20" data-name="Rectángulo 20" width="35.451" height="2.714" rx="1.357" transform="translate(79.703 78.931)" fill="#fff"/>
      <rect id="Rectángulo_21" data-name="Rectángulo 21" width="59.841" height="2.714" rx="1.357" transform="translate(55.313 100.128)" fill="#fff"/>
      <rect id="Rectángulo_22" data-name="Rectángulo 22" width="30.913" height="2.714" rx="1.357" transform="translate(55.313 93.253)" fill="#fff"/>
      <rect id="Rectángulo_23" data-name="Rectángulo 23" width="24.404" height="2.714" rx="1.357" transform="translate(90.749 93.253)" fill="#fff"/>
      <ellipse id="Elipse_4" data-name="Elipse 4" cx="6.133" cy="8.391" rx="6.133" ry="8.391" transform="translate(139.538 259.562) rotate(-11.91)" fill="#fff"/>
      <path id="Trazado_36" data-name="Trazado 36" d="M377.591,60.94l2.077,15.649-11.113-8.116L334.54,51.1l26.31,2.41s13.4,3.254,14.127,3.912A32.957,32.957,0,0,1,377.591,60.94Z" transform="translate(-262.823 -40.145)" fill="#c12f56"/>
      <path id="Trazado_37" data-name="Trazado 37" d="M389.242,51.5l-54.7-.4,43.051,9.848Z" transform="translate(-262.823 -40.145)" fill="#ff5b7e"/>
      <path id="Trazado_38" data-name="Trazado 38" d="M360.006,76.688l14.335-11.514L334.54,51.1Z" transform="translate(-262.823 -40.145)" fill="#ff5b7e"/>
      <path id="Trazado_39" data-name="Trazado 39" d="M848.352,477.587l-.722-1.072a14.748,14.748,0,0,0,3-2.725l.986.83A16.011,16.011,0,0,1,848.352,477.587Z" transform="translate(-665.919 -372.221)" fill="#feb546"/>
      <path id="Trazado_40" data-name="Trazado 40" d="M692.266,208.427l-1.228-.386a36.191,36.191,0,0,0,1.466-8.02l1.286.1a37.4,37.4,0,0,1-1.524,8.307Zm1.479-16.721-1.286.129c-.036-.354-.077-.705-.124-1.059a33.319,33.319,0,0,0-.682-3.6c-.27-1.1-.6-2.2-.986-3.282l1.216-.429c.4,1.121.74,2.268,1.02,3.4a34.782,34.782,0,0,1,.71,3.732c.051.349.094.727.133,1.1Zm-6.609-15.171a47.4,47.4,0,0,0-4.886-6.592l.967-.857a49.054,49.054,0,0,1,5.016,6.757Zm-40.258-3.053a7.177,7.177,0,0,1-4.545-.59,6.806,6.806,0,0,1-2.583-2.9l1.158-.566a5.469,5.469,0,0,0,2.084,2.358,5.94,5.94,0,0,0,3.578.446.815.815,0,0,0,.131-.041l.182-.12.716,1.072c-.073.049-.148.1-.214.144a1.646,1.646,0,0,1-.506.2Zm29.5-9.28a65.686,65.686,0,0,0-6.6-4.931l.705-1.072a67.114,67.114,0,0,1,6.725,5.021Zm-24.134,1.7-1.261-.264a12,12,0,0,0,.253-2.407,14.4,14.4,0,0,0-.429-3.471,17.45,17.45,0,0,0-.6-1.929l1.2-.454a18.716,18.716,0,0,1,.643,2.073,15.675,15.675,0,0,1,.469,3.784,13.183,13.183,0,0,1-.272,2.669Zm-11.325-3.964-1.162-.555a12.962,12.962,0,0,1,6.018-5.867l.178-.086.549,1.166-.163.079a11.668,11.668,0,0,0-5.411,5.263Zm21.373-5.777a26.616,26.616,0,0,0-5.089-1.19c-1.031-.049-1.972-.06-2.879-.032l-.039-1.286c.941-.03,1.914-.019,2.98.032a29.367,29.367,0,0,1,5.4,1.246Zm-16.254-5.214a27.539,27.539,0,0,0-6.11-5.314l.695-1.085a28.747,28.747,0,0,1,6.393,5.563Z" transform="translate(-502.603 -113.562)" fill="#feb546"/>
      <path id="Trazado_41" data-name="Trazado 41" d="M591.163,126.694a24.669,24.669,0,0,0-4.073-.767l.131-1.286a26.343,26.343,0,0,1,4.287.806Z" transform="translate(-461.232 -97.92)" fill="#feb546"/>
      <path id="Trazado_42" data-name="Trazado 42" d="M315.133,983.91s-.474,4.676-4.163,5c3.689.324,4.163,5,4.163,5s.474-4.673,4.163-5C315.607,988.586,315.133,983.91,315.133,983.91Z" transform="translate(-244.306 -772.984)" fill="#ff5b7e"/>
      <path id="Trazado_43" data-name="Trazado 43" d="M953.891,673.07s-.757,7.443-6.631,7.958c5.874.515,6.631,7.96,6.631,7.96s.755-7.445,6.629-7.96C954.645,680.513,953.891,673.07,953.891,673.07Z" transform="translate(-744.191 -528.78)" fill="#02ccc0"/>
      <path id="Trazado_44" data-name="Trazado 44" d="M6.628,253.66S5.874,261.1,0,261.618c5.874.515,6.628,7.96,6.628,7.96s.755-7.445,6.628-7.96C7.383,261.1,6.628,253.66,6.628,253.66Z" transform="translate(0 -199.282)" fill="#02ccc0"/>
      <path id="Trazado_45" data-name="Trazado 45" d="M674.875,544.1s-.575,6.6-5.055,7.051c4.48.457,5.055,7.053,5.055,7.053s.577-6.6,5.059-7.051C675.452,550.7,674.875,544.1,674.875,544.1Z" transform="translate(-526.227 -427.458)" fill="#feb546"/>
      <path id="Trazado_46" data-name="Trazado 46" d="M132.725,94.35s-.575,6.594-5.055,7.051c4.48.457,5.055,7.051,5.055,7.051s.577-6.594,5.057-7.051C133.3,100.944,132.725,94.35,132.725,94.35Z" transform="translate(-100.301 -74.124)" fill="#feb546"/>
      <ellipse id="Elipse_5" data-name="Elipse 5" cx="42.646" cy="38.433" rx="42.646" ry="38.433" transform="translate(313.209)" fill="#e6f7ff"/>
      <path id="Trazado_47" data-name="Trazado 47" d="M1496.737,366.973a5.6,5.6,0,1,1-5.574-5.023A5.318,5.318,0,0,1,1496.737,366.973Z" transform="translate(-1167.116 -284.357)" fill="#e6f7ff"/>
      <path id="Trazado_48" data-name="Trazado 48" d="M1607.474,113.873c-.9-5-4.348-9.062-9.589-9.433-6.577-.476-9.162,5.462-9.634,6-.3-.358-1.664-3.882-5.359-5.518-6.058-2.675-13.4,1.473-14.23,10.311-.429,4.581.915,8.061,3.518,11.711,3.737,5.241,10.247,10.9,15.435,14.723a.36.36,0,0,0,.51,0c2.787-2.1,12.219-8.6,17.069-16.153A15.684,15.684,0,0,0,1607.474,113.873Z" transform="translate(-1232.318 -81.8)" fill="#ff5b7e"/>
    </g>
  </g>
</svg>
