<svg xmlns="http://www.w3.org/2000/svg" viewBox="0 0 764.02 372.36"><defs><style>.cls-1{fill:#fff;stroke:#fff;stroke-miterlimit:10;stroke-width:0.5px;}</style></defs><title>logonb</title><g id="Capa_2" data-name="Capa 2"><g id="Capa_3" data-name="Capa 3"><path class="cls-1" d="M54.72,327.23a54.3,54.3,0,0,0,54.47-54.48V204.34H76.51v68.41a21.79,21.79,0,0,1-43.58,0V204.34H.25v68.41a54.3,54.3,0,0,0,54.47,54.48Z"/><path class="cls-1" d="M253.25,241.15A61.66,61.66,0,0,0,220.14,208a60.7,60.7,0,0,0-24.19-4.8,61.43,61.43,0,0,0-24.19,4.8,66.92,66.92,0,0,0-19.82,13.29,61.86,61.86,0,0,0-18.09,44V358l32.68,10.89V320a55.23,55.23,0,0,0,5.23,2.4,60.9,60.9,0,0,0,48.38,0A59.71,59.71,0,0,0,240,309.14a63.69,63.69,0,0,0,13.29-19.61,61.4,61.4,0,0,0,4.8-24.19,60.7,60.7,0,0,0-4.8-24.19ZM196,294.76a29.42,29.42,0,1,1,29.42-29.42A29.59,29.59,0,0,1,196,294.76Z"/><path class="cls-1" d="M374.17,220.89a60.92,60.92,0,1,0-15.9,97.84,28.32,28.32,0,0,1-46.85,12.85l-22.67,23.75A61.14,61.14,0,0,0,392,311.1V264a60.49,60.49,0,0,0-17.87-43.15ZM331,292.36A28.44,28.44,0,1,1,359.36,264,28.45,28.45,0,0,1,331,292.36Z"/><path class="cls-1" d="M449.84,325.69V272.1A38.17,38.17,0,0,1,488,234V201.28a70.64,70.64,0,0,0-50.11,20.92,69.25,69.25,0,0,0-20.7,49.9v53.6Z"/><path class="cls-1" d="M582.66,203l.22,7a62.86,62.86,0,0,0-28.11-6.75,61.43,61.43,0,0,0-24.19,4.8,67.39,67.39,0,0,0-19.83,13.28,64.85,64.85,0,0,0-13.29,19.83,63.48,63.48,0,0,0,0,48.38,61.64,61.64,0,0,0,33.12,33.11,65.6,65.6,0,0,0,24.19,4.8,63,63,0,0,0,28.11-6.75l-.22,5h32.68V203Zm-13.07,87.6a29.24,29.24,0,0,1-14.82,4.14,29.42,29.42,0,1,1,0-58.84,27.39,27.39,0,0,1,15.91,4.8,26.29,26.29,0,0,1,10.67,12.2,27.29,27.29,0,0,1,2.83,12.41,29.5,29.5,0,0,1-3.92,14.82,27.39,27.39,0,0,1-10.67,10.47Z"/><path class="cls-1" d="M759,241.15A61.66,61.66,0,0,0,725.86,208a60.72,60.72,0,0,0-24.2-4.8,61.42,61.42,0,0,0-24.18,4.8,67.1,67.1,0,0,0-19.83,13.29,61.79,61.79,0,0,0-18.08,44V358l32.68,10.89V320a54.11,54.11,0,0,0,5.23,2.4,60.9,60.9,0,0,0,48.38,0,59.92,59.92,0,0,0,19.82-13.29A63.69,63.69,0,0,0,759,289.53a61.4,61.4,0,0,0,4.8-24.19,60.7,60.7,0,0,0-4.8-24.19Zm-57.31,53.61a29.42,29.42,0,1,1,29.42-29.42,29.58,29.58,0,0,1-29.42,29.42Z"/><path class="cls-1" d="M446.28,71.74a70.21,70.21,0,0,1,.48,8.23,69.28,69.28,0,0,1-132.18,29,55.65,55.65,0,1,0-23.63,3.9A92.61,92.61,0,0,0,469.43,69ZM261.57,57.3A32.38,32.38,0,1,1,294,89.68,32.41,32.41,0,0,1,261.57,57.3"/><path class="cls-1" d="M519.35,40.94,466.25,2.09c-3.39-2.48-9.67-2.43-13.07,0L398.79,40.94c-5.69,4.06-8.41,11.29-4.65,17.72,3.29,5.62,12,8.73,17.72,4.65l47.78-34.13,46.64,34.13c5.64,4.13,14.44,1,17.71-4.65,3.84-6.56,1-13.58-4.64-17.72"/></g></g></svg>