<svg xmlns="http://www.w3.org/2000/svg" viewBox="0 0 493.42 275.06"><defs><style>.cls-1{fill:#32bab0;}</style></defs><title>logo</title><g id="Capa_2" data-name="Capa 2"><g id="Capa_1-2" data-name="Capa 1"><path class="cls-1" d="M31.77,244.88A33.69,33.69,0,0,1,15.49,241,28.07,28.07,0,0,1,4.15,229.58Q0,222.07,0,211.13V178.7A6.53,6.53,0,0,1,6.72,172a6.53,6.53,0,0,1,6.73,6.72v32.43q0,7.38,2.76,12.19a17.26,17.26,0,0,0,7.52,7.12,24.06,24.06,0,0,0,10.68,2.31,22,22,0,0,0,10.08-2.24,18.72,18.72,0,0,0,7-6.07,14.72,14.72,0,0,0,2.64-8.56h8.31a27.8,27.8,0,0,1-4,14.76,29,29,0,0,1-10.94,10.41A32,32,0,0,1,31.77,244.88Zm29.13-.66a6.53,6.53,0,0,1-6.72-6.73V178.7a6.49,6.49,0,0,1,1.91-4.88,6.7,6.7,0,0,1,11.54,4.88v58.79a6.67,6.67,0,0,1-1.85,4.82A6.49,6.49,0,0,1,60.9,244.22Z"/><path class="cls-1" d="M98.08,275.06a6.53,6.53,0,0,1-6.73-6.72V208.23a38.14,38.14,0,0,1,4.88-18.72,35.21,35.21,0,0,1,12.92-13.12,36.39,36.39,0,0,1,50,13.12A36.75,36.75,0,0,1,164,208.23a38.78,38.78,0,0,1-4.42,18.65,34,34,0,0,1-12.06,13.05,33.35,33.35,0,0,1-31.57,1.58,33.92,33.92,0,0,1-11.14-8.76v35.59a6.65,6.65,0,0,1-1.85,4.81A6.47,6.47,0,0,1,98.08,275.06Zm29.53-42.18a22.53,22.53,0,0,0,12-3.23,23.39,23.39,0,0,0,8.37-8.83,27.38,27.38,0,0,0,0-25.31,23.31,23.31,0,0,0-8.37-8.83,23.78,23.78,0,0,0-23.93,0,22.87,22.87,0,0,0-8.37,8.83,27.94,27.94,0,0,0,0,25.31,22.94,22.94,0,0,0,8.37,8.83A22.65,22.65,0,0,0,127.61,232.88Z"/><path class="cls-1" d="M214.08,244.74a32.09,32.09,0,0,1-29.4-17.59,39.94,39.94,0,0,1-4.35-18.92,37.88,37.88,0,0,1,4.68-19,34,34,0,0,1,12.86-12.92,40,40,0,0,1,37.57,0,34,34,0,0,1,12.85,12.92,37.88,37.88,0,0,1,4.68,19h-7.78a42.65,42.65,0,0,1-4,18.92,32,32,0,0,1-11,12.91A28.23,28.23,0,0,1,214.08,244.74Zm2.37,29.4a42.1,42.1,0,0,1-17.53-3.69,36.82,36.82,0,0,1-13.84-10.81,5.61,5.61,0,0,1-1.25-4.61,5.83,5.83,0,0,1,2.57-3.83,6.35,6.35,0,0,1,4.94-1,6.69,6.69,0,0,1,4.15,2.64,24.4,24.4,0,0,0,9,7,28.82,28.82,0,0,0,12.26,2.51,23.21,23.21,0,0,0,11.66-3,21.84,21.84,0,0,0,8.51-9,30.47,30.47,0,0,0,3.16-14.5V217.06l4.35-11.6,8.57,2.77V236.7a39,39,0,0,1-4.62,18.92,35.13,35.13,0,0,1-12.85,13.51A35.92,35.92,0,0,1,216.45,274.14Zm.27-41.26a23.06,23.06,0,0,0,12.12-3.16,22.05,22.05,0,0,0,8.24-8.7,26.68,26.68,0,0,0,3-12.79,27,27,0,0,0-3-12.85,21.91,21.91,0,0,0-8.24-8.77,24.84,24.84,0,0,0-24.25,0,22.43,22.43,0,0,0-8.31,8.77,26.57,26.57,0,0,0-3,12.85,26.25,26.25,0,0,0,3,12.79,22.58,22.58,0,0,0,8.31,8.7A23.1,23.1,0,0,0,216.72,232.88Z"/><path class="cls-1" d="M279.6,244.22a6.75,6.75,0,0,1-4.88-1.65,6.57,6.57,0,0,1-1.72-4.94V178.7a6,6,0,0,1,6.6-6.59,5.83,5.83,0,0,1,6.59,6.59v58.93a6.74,6.74,0,0,1-1.65,4.87A6.53,6.53,0,0,1,279.6,244.22Zm-.14-45.09A26.35,26.35,0,0,1,283.35,185a28.54,28.54,0,0,1,10.48-10,29.2,29.2,0,0,1,14.5-3.69q7.92,0,11.8,2.57c2.59,1.71,3.58,3.76,3,6.13a5.08,5.08,0,0,1-1.52,2.83A5.17,5.17,0,0,1,319,184.1a7.6,7.6,0,0,1-3.16-.13,36.93,36.93,0,0,0-15.16-.26,20.59,20.59,0,0,0-10.61,5.4,13.68,13.68,0,0,0-3.89,10Z"/><path class="cls-1" d="M361.85,244.74a31.69,31.69,0,0,1-17.26-4.81,34.13,34.13,0,0,1-12.07-13.05,38.89,38.89,0,0,1-4.41-18.65,36.65,36.65,0,0,1,4.81-18.72A35.63,35.63,0,0,1,346,176.39a36.33,36.33,0,0,1,50,13.12,36.65,36.65,0,0,1,4.81,18.72H395.6a38.89,38.89,0,0,1-4.41,18.65,34.13,34.13,0,0,1-12.07,13.05A31.7,31.7,0,0,1,361.85,244.74Zm2.64-11.86a22.56,22.56,0,0,0,12-3.23,23,23,0,0,0,8.3-8.83,27.94,27.94,0,0,0,0-25.31,22.92,22.92,0,0,0-8.3-8.83,23.78,23.78,0,0,0-23.93,0,23.27,23.27,0,0,0-8.44,8.83,27.46,27.46,0,0,0,0,25.31,23.34,23.34,0,0,0,8.44,8.83A22.64,22.64,0,0,0,364.49,232.88ZM394,244.35a6.53,6.53,0,0,1-6.72-6.72V217.46l2.5-14,10.94,4.75v29.4a6.53,6.53,0,0,1-6.72,6.72Z"/><path class="cls-1" d="M427.5,275.06a6.53,6.53,0,0,1-6.72-6.72V208.23a38,38,0,0,1,4.88-18.72,35.21,35.21,0,0,1,12.92-13.12,36.37,36.37,0,0,1,50,13.12,36.66,36.66,0,0,1,4.82,18.72A38.89,38.89,0,0,1,489,226.88a34.18,34.18,0,0,1-12.06,13.05,33.37,33.37,0,0,1-31.58,1.58,33.78,33.78,0,0,1-11.13-8.76v35.59a6.65,6.65,0,0,1-1.85,4.81A6.49,6.49,0,0,1,427.5,275.06ZM457,232.88a22.56,22.56,0,0,0,12-3.23,23.54,23.54,0,0,0,8.37-8.83,27.38,27.38,0,0,0,0-25.31,23.47,23.47,0,0,0-8.37-8.83,23.78,23.78,0,0,0-23.93,0,22.73,22.73,0,0,0-8.37,8.83,27.94,27.94,0,0,0,0,25.31A22.67,22.67,0,0,0,457,232.88Z"/><path class="cls-1" d="M299.29,58.49a55.77,55.77,0,0,1,.4,6.73A56.69,56.69,0,0,1,191.54,89a45.54,45.54,0,1,0-19.34,3.19,75.76,75.76,0,0,0,146-35.93ZM148.17,46.68a26.49,26.49,0,1,1,26.49,26.49A26.52,26.52,0,0,1,148.17,46.68Z"/><path class="cls-1" d="M359.08,33.29,315.63,1.51c-2.77-2-7.91-2-10.69,0L260.43,33.29c-4.65,3.33-6.87,9.24-3.8,14.5,2.69,4.6,9.82,7.15,14.5,3.8l39.09-27.92,38.16,27.92c4.62,3.38,11.82.78,14.5-3.8C366,42.42,363.71,36.68,359.08,33.29Z"/></g></g></svg>